<svg xmlns="http://www.w3.org/2000/svg" width="19" height="19" viewBox="0 0 19 19">
  <g id="Group_17262" data-name="Group 17262" transform="translate(-341 -53)">
    <path id="Rectangle_3453" data-name="Rectangle 3453" d="M2-1H5A3,3,0,0,1,8,2V5A3,3,0,0,1,5,8H2A3,3,0,0,1-1,5V2A3,3,0,0,1,2-1ZM5,6A1,1,0,0,0,6,5V2A1,1,0,0,0,5,1H2A1,1,0,0,0,1,2V5A1,1,0,0,0,2,6Z" transform="translate(342 54)" fill="#43290a"/>
    <path id="Rectangle_3457" data-name="Rectangle 3457" d="M2-1H5A3,3,0,0,1,8,2V5A3,3,0,0,1,5,8H2A3,3,0,0,1-1,5V2A3,3,0,0,1,2-1ZM5,6A1,1,0,0,0,6,5V2A1,1,0,0,0,5,1H2A1,1,0,0,0,1,2V5A1,1,0,0,0,2,6Z" transform="translate(342 64)" fill="#43290a"/>
    <path id="Rectangle_3455" data-name="Rectangle 3455" d="M2-1H5A3,3,0,0,1,8,2V5A3,3,0,0,1,5,8H2A3,3,0,0,1-1,5V2A3,3,0,0,1,2-1ZM5,6A1,1,0,0,0,6,5V2A1,1,0,0,0,5,1H2A1,1,0,0,0,1,2V5A1,1,0,0,0,2,6Z" transform="translate(352 54)" fill="#43290a"/>
    <path id="Rectangle_3456" data-name="Rectangle 3456" d="M2-1H5A3,3,0,0,1,8,2V5A3,3,0,0,1,5,8H2A3,3,0,0,1-1,5V2A3,3,0,0,1,2-1ZM5,6A1,1,0,0,0,6,5V2A1,1,0,0,0,5,1H2A1,1,0,0,0,1,2V5A1,1,0,0,0,2,6Z" transform="translate(352 64)" fill="#43290a"/>
  </g>
</svg>
