<svg xmlns="http://www.w3.org/2000/svg" width="17.194" height="19.315" viewBox="0 0 17.194 19.315">
  <g id="_000000ff" data-name="#000000ff" transform="translate(-28.123)">
    <path id="Path_16881" data-name="Path 16881" d="M107.6,0h.477c.224.023.45.037.672.078a5.37,5.37,0,0,1,4.434,4.85,1.152,1.152,0,0,1,.465.914q0,1.4,0,2.8a1.148,1.148,0,0,1-.447.9,6.062,6.062,0,0,1-.039.986,3.316,3.316,0,0,1-2.715,2.751,6.1,6.1,0,0,1-1.057.047c-.491,0-.981,0-1.472,0a.669.669,0,0,1,0-1.338c.653,0,1.307,0,1.961,0a2.018,2.018,0,0,0,.747-.143,1.979,1.979,0,0,0,1.161-1.3,3.544,3.544,0,0,0,.072-1.008,1.341,1.341,0,0,1-.309-.354,5.021,5.021,0,0,1-.849,1.534,1.068,1.068,0,0,1-.819.373h-1.853a1.726,1.726,0,0,0-.593.083,1.629,1.629,0,0,0-.831.65,4.4,4.4,0,0,1-2.473-2.639,1.2,1.2,0,0,1-.418.423,1.116,1.116,0,0,1-1.679-.962c0-.944,0-1.887,0-2.831a1.146,1.146,0,0,1,.464-.88,5.317,5.317,0,0,1,.47-1.8A5.4,5.4,0,0,1,105.306.637,5.488,5.488,0,0,1,107.6,0M105.4,2.165a4.007,4.007,0,0,0-1.563,2.8,1.273,1.273,0,0,1,.314.383,4.838,4.838,0,0,1,.921-1.51,3.823,3.823,0,0,1,2.121-1.228,3.53,3.53,0,0,1,2.431.429,4.53,4.53,0,0,1,1.893,2.305,1.393,1.393,0,0,1,.317-.38,4.017,4.017,0,0,0-6.433-2.8Z" transform="translate(-71.117)" fill="#fff"/>
    <path id="Path_16882" data-name="Path 16882" d="M29.939,313.974a6.316,6.316,0,0,1,3.133-1.734,5.277,5.277,0,0,0,2.268,1.406,1.576,1.576,0,0,0,1.376,1.027c.441.011.883,0,1.324,0a8.326,8.326,0,0,0,1.471-.068,4.223,4.223,0,0,0,2.661-1.667,6.329,6.329,0,0,1,2.917,3.777,6.916,6.916,0,0,1,.221,2.177,1,1,0,0,1-.882.879H29.018a1,1,0,0,1-.888-.879,7.462,7.462,0,0,1,.092-1.607A6.289,6.289,0,0,1,29.939,313.974Z" transform="translate(0 -300.461)" fill="#fff"/>
  </g>
</svg>
