<svg xmlns="http://www.w3.org/2000/svg" width="20.476" height="17.063" viewBox="0 0 20.476 17.063">
  <g id="Group_16247" data-name="Group 16247" transform="translate(-85 359.928) rotate(-90)">
    <g id="Group_16244" data-name="Group 16244" transform="translate(344.725 91.825)">
      <line id="Line_287" data-name="Line 287" x1="8.64" transform="translate(0 3.413)" fill="none" stroke="#43290a" stroke-linecap="round" stroke-width="2"/>
      <g id="Group_16242" data-name="Group 16242" transform="translate(8.378)">
        <g id="Group_16238" data-name="Group 16238">
          <path id="Path_14595" data-name="Path 14595" d="M18.413,21.825a3.413,3.413,0,1,1,3.413-3.413A3.417,3.417,0,0,1,18.413,21.825Zm0-5.119a1.706,1.706,0,1,0,1.706,1.706A1.708,1.708,0,0,0,18.413,16.706Z" transform="translate(-15 -15)" fill="#43290a"/>
        </g>
      </g>
    </g>
    <g id="Group_16245" data-name="Group 16245" transform="translate(342.865 85)">
      <line id="Line_286" data-name="Line 286" x1="8.857" transform="translate(6.5 3.413)" fill="none" stroke="#43290a" stroke-linecap="round" stroke-width="2"/>
      <g id="Group_16243" data-name="Group 16243">
        <g id="Group_16238-2" data-name="Group 16238">
          <path id="Path_14595-2" data-name="Path 14595" d="M18.413,21.825a3.413,3.413,0,1,1,3.413-3.413A3.417,3.417,0,0,1,18.413,21.825Zm0-5.119a1.706,1.706,0,1,0,1.706,1.706A1.708,1.708,0,0,0,18.413,16.706Z" transform="translate(-15 -15)" fill="#43290a"/>
        </g>
      </g>
    </g>
    <g id="Group_16248" data-name="Group 16248" transform="translate(342.865 98.65)">
      <line id="Line_286-2" data-name="Line 286" x1="8.857" transform="translate(6.5 3.413)" fill="none" stroke="#43290a" stroke-linecap="round" stroke-width="2"/>
      <g id="Group_16243-2" data-name="Group 16243">
        <g id="Group_16238-3" data-name="Group 16238">
          <path id="Path_14595-3" data-name="Path 14595" d="M18.413,21.825a3.413,3.413,0,1,1,3.413-3.413A3.417,3.417,0,0,1,18.413,21.825Zm0-5.119a1.706,1.706,0,1,0,1.706,1.706A1.708,1.708,0,0,0,18.413,16.706Z" transform="translate(-15 -15)" fill="#43290a"/>
        </g>
      </g>
    </g>
  </g>
</svg>
