<svg xmlns="http://www.w3.org/2000/svg" width="16.874" height="14.765" viewBox="0 0 16.874 14.765">
  <path id="Icon_awesome-gift" data-name="Icon awesome-gift" d="M1.055,15.96a1.054,1.054,0,0,0,1.055,1.055H7.383V11.742H1.055Zm8.437,1.055h5.273A1.054,1.054,0,0,0,15.82,15.96V11.742H9.492ZM15.82,6.469H14.432a2.874,2.874,0,0,0,.333-1.318,2.9,2.9,0,0,0-2.9-2.9c-1.371,0-2.258.7-3.395,2.251C7.333,2.952,6.447,2.25,5.075,2.25a2.9,2.9,0,0,0-2.9,2.9,2.833,2.833,0,0,0,.333,1.318H1.055A1.054,1.054,0,0,0,0,7.523V10.16a.529.529,0,0,0,.527.527h15.82a.529.529,0,0,0,.527-.527V7.523A1.054,1.054,0,0,0,15.82,6.469Zm-10.748,0a1.318,1.318,0,1,1,0-2.637c.656,0,1.14.109,2.838,2.637H5.072Zm6.793,0H9.027c1.694-2.521,2.165-2.637,2.838-2.637a1.318,1.318,0,0,1,0,2.637Z" transform="translate(0 -2.25)" fill="#ffc400"/>
</svg>
