<svg xmlns="http://www.w3.org/2000/svg" width="20" height="17.274" viewBox="0 0 20 17.274">
  <g id="Group_16183" data-name="Group 16183" transform="translate(0.103)">
    <path id="Path_14569" data-name="Path 14569" d="M14.563,1.127,10.617,2.352l-1.133.726-2.54-1.95L3.316,1.49,1,3.758A17.936,17.936,0,0,0,1,6.479c.137.316,2.313,3.536,2.313,3.536L7.941,14.55l1.543,1.315h1.133l7.71-8.026.589-2.812-.589-1.949a7.475,7.475,0,0,0-1-1.225C17.148,1.807,15.7,1.49,15.7,1.49Z" fill="#fa4248"/>
    <path id="Path_13" data-name="Path 13" d="M18.334,1.617A5.531,5.531,0,0,0,14.372,0,5.6,5.6,0,0,0,10.41,1.617l-.526.526L9.4,1.617A5.531,5.531,0,0,0,5.437,0,5.6,5.6,0,0,0,1.475,1.617,5.712,5.712,0,0,0,1.6,9.622l.4.4,6.792,6.792a1.586,1.586,0,0,0,2.224,0l6.792-6.792.4-.4A5.75,5.75,0,0,0,18.334,1.617Zm-.4,4.2A3.687,3.687,0,0,1,16.8,8.207l-.445.445L9.884,15.121,3.416,8.652l-.445-.445A3.792,3.792,0,0,1,1.839,5.822,3.48,3.48,0,0,1,2.89,3.073,3.623,3.623,0,0,1,5.639,2.022,3.687,3.687,0,0,1,8.025,3.154l.445.445.768.768,1.051,1.051a1.058,1.058,0,1,0,1.5-1.5l-.4-.4.445-.445a3.685,3.685,0,0,1,2.547-1.051,3.453,3.453,0,0,1,2.507,1.051A3.48,3.48,0,0,1,17.93,5.822Z" transform="translate(0)" fill="#fa4248"/>
    <path id="Path_14" data-name="Path 14" d="M13.573,18.288l-1.819-1.819a.977.977,0,0,1,0-1.415h0a.977.977,0,0,1,1.415,0l1.819,1.819a.977.977,0,0,1,0,1.415h0A.977.977,0,0,1,13.573,18.288Z" transform="translate(-6.882 -8.787)" fill="#fff"/>
  </g>
</svg>
