<svg xmlns="http://www.w3.org/2000/svg" width="19.571" height="17.294" viewBox="0 0 19.571 17.294">
  <g id="Group_16181" data-name="Group 16181" transform="translate(12319.675 10408.884)">
    <g id="Group_16181-2" data-name="Group 16181" transform="translate(-12318.782 -10407.991)">
      <path id="Path_14556" data-name="Path 14556" d="M24.25,9.912H28.2V8.726a1.976,1.976,0,1,0-3.952,0Z" transform="translate(-10.417 -6.75)" fill="#43290a"/>
      <path id="Path_14557" data-name="Path 14557" d="M18.8,28.211h-.2a1.97,1.97,0,0,1-1.976-1.976V24.29H6.75v2.34a1.586,1.586,0,0,0,1.581,1.581H18.8Z" transform="translate(-6.75 -12.703)" fill="#43290a"/>
    </g>
    <path id="Path_14563" data-name="Path 14563" d="M13.581,14.162a1.581,1.581,0,1,1,1.581-1.581A1.582,1.582,0,0,1,13.581,14.162Zm0-1.976a.4.4,0,1,0,.4.4A.4.4,0,0,0,13.581,12.186Z" transform="translate(-12326.633 -10416.201)" fill="#43290a"/>
    <path id="Path_14564" data-name="Path 14564" d="M19.581,20.162a1.581,1.581,0,1,1,1.581-1.581A1.582,1.582,0,0,1,19.581,20.162Zm0-1.976a.4.4,0,1,0,.4.4A.4.4,0,0,0,19.581,18.186Z" transform="translate(-12328.678 -10418.815)" fill="#43290a"/>
    <path id="Path_14565" data-name="Path 14565" d="M0,0H8.458V1.186H0Z" transform="matrix(0.608, -0.794, 0.794, 0.608, -12314.115, -10398.825)" fill="#43290a"/>
    <g id="Union_6" data-name="Union 6" transform="translate(-12319.375 -10408.584)" fill="#43290a" stroke-linecap="round" stroke-linejoin="round">
      <path d="M 12.796799659729 16.84371566772461 L 12.64680004119873 16.84371566772461 L 2.173499822616577 16.84371566772461 C 0.892319917678833 16.84371566772461 -0.1500000804662704 15.9184455871582 -0.1500000804662704 14.78112506866455 L -0.1500000804662704 12.72361469268799 C -0.1500000804662704 12.35313510894775 0.1829499304294586 12.05172538757324 0.5921999216079712 12.05172538757324 L 1.430399894714355 12.05172538757324 L 1.430399894714355 2.608715057373047 C 1.430399894714355 1.087555170059204 2.827600002288818 -0.1499948352575302 4.545000076293945 -0.1499948352575302 L 16.4015998840332 -0.1499948352575302 C 17.9011402130127 -0.1499948352575302 19.1210994720459 0.9315951466560364 19.1210994720459 2.261045217514038 L 19.1210994720459 3.304055213928223 C 19.1210994720459 3.674545049667358 18.78775024414062 3.975955247879028 18.37800025939941 3.975955247879028 L 15.16829967498779 3.975955247879028 L 15.16829967498779 14.43346500396729 C 15.16829967498779 15.644700050354 14.13753700256348 16.6712646484375 12.796799659729 16.82361793518066 L 12.796799659729 16.84371566772461 Z M 2.916599988937378 12.05172538757324 L 10.47329998016357 12.05172538757324 C 10.88304996490479 12.05172538757324 11.21640014648438 12.35313510894775 11.21640014648438 12.72361469268799 L 11.21640014648438 14.43346500396729 C 11.21640014648438 15.02194499969482 11.76965999603271 15.50070476531982 12.44970035552979 15.50070476531982 C 13.12973976135254 15.50070476531982 13.68299961090088 15.02194499969482 13.68299961090088 14.43346500396729 L 13.68299961090088 3.304055213928223 L 13.68299961090088 2.261045217514038 C 13.68299961090088 1.888375163078308 13.77940845489502 1.524257183074951 13.96389102935791 1.19380521774292 L 4.545000076293945 1.19380521774292 C 3.64709997177124 1.19380521774292 2.916599988937378 1.828535199165344 2.916599988937378 2.608715057373047 L 2.916599988937378 12.05172538757324 Z M 1.335299968719482 13.3955249786377 L 1.335299968719482 14.78112506866455 C 1.335299968719482 15.17790508270264 1.711309909820557 15.50070476531982 2.173499822616577 15.50070476531982 L 10.01212978363037 15.50070476531982 C 9.826984405517578 15.1694803237915 9.730199813842773 14.80531120300293 9.730199813842773 14.43346500396729 L 9.730199813842773 13.3955249786377 L 1.335299968719482 13.3955249786377 Z M 15.16829967498779 2.632155179977417 L 17.6348991394043 2.632155179977417 L 17.6348991394043 2.261045217514038 C 17.6348991394043 1.672565221786499 17.08164024353027 1.19380521774292 16.4015998840332 1.19380521774292 C 15.72155952453613 1.19380521774292 15.16829967498779 1.672565221786499 15.16829967498779 2.261045217514038 L 15.16829967498779 2.632155179977417 Z" stroke="none"/>
      <path d="M 12.64680004119873 16.69371604919434 L 12.64680004119873 16.68658447265625 C 13.97159957885742 16.59788513183594 15.01830005645752 15.62139511108398 15.01830005645752 14.43346500396729 L 15.01830005645752 3.825955152511597 L 18.37800025939941 3.825955152511597 C 18.7047004699707 3.825955152511597 18.97109985351562 3.592335224151611 18.97109985351562 3.304055213928223 L 18.97109985351562 2.261045217514038 C 18.97109985351562 1.014495134353638 17.81819915771484 5.163574314792641e-06 16.4015998840332 5.163574314792641e-06 L 4.545000076293945 5.163574314792641e-06 C 2.911499977111816 5.163574314792641e-06 1.580399870872498 1.170515179634094 1.580399870872498 2.608715057373047 L 1.580399870872498 12.20172500610352 L 0.5921999216079712 12.20172500610352 C 0.2654999196529388 12.20172500610352 -7.324219097881723e-08 12.43534469604492 -7.324219097881723e-08 12.72361469268799 L -7.324219097881723e-08 14.78112506866455 C -7.324219097881723e-08 15.83602523803711 0.9746999144554138 16.69371604919434 2.173499822616577 16.69371604919434 L 12.64680004119873 16.69371604919434 M 4.545000076293945 1.043805122375488 L 14.23781967163086 1.043805122375488 C 13.981689453125 1.395425200462341 13.83300018310547 1.813295125961304 13.83300018310547 2.261045217514038 L 13.83300018310547 14.43346500396729 C 13.83300018310547 15.10424518585205 13.21199989318848 15.65070533752441 12.44970035552979 15.65070533752441 C 11.68649959564209 15.65070533752441 11.06639957427979 15.10424518585205 11.06639957427979 14.43346500396729 L 11.06639957427979 12.72361469268799 C 11.06639957427979 12.43534469604492 10.80000019073486 12.20172500610352 10.47329998016357 12.20172500610352 L 2.766599893569946 12.20172500610352 L 2.766599893569946 2.608715057373047 C 2.766599893569946 1.746275186538696 3.564899921417236 1.043805122375488 4.545000076293945 1.043805122375488 M 1.185299873352051 13.24552536010742 L 9.880200386047363 13.24552536010742 L 9.880200386047363 14.43346500396729 C 9.880200386047363 14.88092517852783 10.02960014343262 15.29827499389648 10.28610038757324 15.65070533752441 L 2.173499822616577 15.65070533752441 C 1.628999948501587 15.65070533752441 1.185299873352051 15.2602653503418 1.185299873352051 14.78112506866455 L 1.185299873352051 13.24552536010742 M 16.4015998840332 1.043805122375488 C 17.1648006439209 1.043805122375488 17.7849006652832 1.589465141296387 17.7849006652832 2.261045217514038 L 17.7849006652832 2.782155275344849 L 15.01830005645752 2.782155275344849 L 15.01830005645752 2.261045217514038 C 15.01830005645752 1.589465141296387 15.63930034637451 1.043805122375488 16.4015998840332 1.043805122375488 M 12.64680004119873 16.99371528625488 L 2.173499822616577 16.99371528625488 C 0.8096099495887756 16.99371528625488 -0.3000000715255737 16.00115585327148 -0.3000000715255737 14.78112506866455 L -0.3000000715255737 12.72361469268799 C -0.3000000715255737 12.27042484283447 0.1002399250864983 11.90172481536865 0.5921999216079712 11.90172481536865 L 1.280399918556213 11.90172481536865 L 1.280399918556213 2.608715057373047 C 1.280399918556213 1.004845142364502 2.744889974594116 -0.2999948263168335 4.545000076293945 -0.2999948263168335 L 16.4015998840332 -0.2999948263168335 C 17.98385047912598 -0.2999948263168335 19.27109909057617 0.848885178565979 19.27109909057617 2.261045217514038 L 19.27109909057617 3.304055213928223 C 19.27109909057617 3.757255077362061 18.87046051025391 4.125955104827881 18.37800025939941 4.125955104827881 L 15.31830024719238 4.125955104827881 L 15.31830024719238 14.43346500396729 C 15.31830024719238 15.74487495422363 14.18888568878174 16.85210227966309 12.73464679718018 16.98064804077148 C 12.70686626434326 16.9891414642334 12.67736148834229 16.99371528625488 12.64680004119873 16.99371528625488 Z M 3.06659984588623 11.90172481536865 L 10.47329998016357 11.90172481536865 C 10.96576023101807 11.90172481536865 11.36639976501465 12.27042484283447 11.36639976501465 12.72361469268799 L 11.36639976501465 14.43346500396729 C 11.36639976501465 14.93923473358154 11.852370262146 15.35070514678955 12.44970035552979 15.35070514678955 C 13.04702949523926 15.35070514678955 13.53299999237061 14.93923473358154 13.53299999237061 14.43346500396729 L 13.53299999237061 2.261045217514038 C 13.53299999237061 1.944873094558716 13.59778785705566 1.634646058082581 13.7229061126709 1.343805193901062 L 4.545000076293945 1.343805193901062 C 3.729809999465942 1.343805193901062 3.06659984588623 1.911245107650757 3.06659984588623 2.608715057373047 L 3.06659984588623 11.90172481536865 Z M 1.485299944877625 13.54552555084229 L 1.485299944877625 14.78112506866455 C 1.485299944877625 15.09519481658936 1.794029951095581 15.35070514678955 2.173499822616577 15.35070514678955 L 9.770936012268066 15.35070514678955 C 9.645283699035645 15.0593900680542 9.5802001953125 14.74912357330322 9.5802001953125 14.43346500396729 L 9.5802001953125 13.54552555084229 L 1.485299944877625 13.54552555084229 Z M 15.31830024719238 2.482155084609985 L 17.48489952087402 2.482155084609985 L 17.48489952087402 2.261045217514038 C 17.48489952087402 1.755275130271912 16.99892997741699 1.343805193901062 16.4015998840332 1.343805193901062 C 15.80426979064941 1.343805193901062 15.31830024719238 1.755275130271912 15.31830024719238 2.261045217514038 L 15.31830024719238 2.482155084609985 Z" stroke="none" fill="#43290a"/>
    </g>
  </g>
</svg>
