<svg id="Group_17777" data-name="Group 17777" xmlns="http://www.w3.org/2000/svg" xmlns:xlink="http://www.w3.org/1999/xlink" width="259.564" height="249.757" viewBox="0 0 259.564 249.757">
  <defs>
    <clipPath id="clip-path">
      <path id="Path_3969" data-name="Path 3969" d="M173.6,404.957l-6.821,3.939a2.039,2.039,0,0,1-1.85,0l-8.324-4.744a.56.56,0,0,1,0-1.063l6.82-3.939a2.038,2.038,0,0,1,1.85,0c2.253,1.3,6.065,3.435,8.318,4.744a.56.56,0,0,1,.006,1.063Z" transform="translate(-156.219 -398.927)" fill="#43290a"/>
    </clipPath>
  </defs>
  <g id="freepik--Device--inject-42" transform="translate(22.264 109.304)">
    <g id="freepik--device--inject-42-2" data-name="freepik--device--inject-42">
      <g id="freepik--Mobile--inject-42">
        <path id="Path_3845" data-name="Path 3845" d="M288.5,300.052a.769.769,0,0,0-.1-.164,1.168,1.168,0,0,0-.082-.1.566.566,0,0,0-.1-.12l-.107-.1a2.35,2.35,0,0,0-.409-.289L151.424,220.585a5.033,5.033,0,0,0-4.518,0L80.06,259.161l-.271.17-.088.076a1.66,1.66,0,0,0-.378.422.925.925,0,0,0-.138.289.892.892,0,0,0,0,.138.925.925,0,0,0,0,.227,1.332,1.332,0,0,0,0,.157,1.8,1.8,0,0,0,.044.176,1.375,1.375,0,0,0,.069.17,1.97,1.97,0,0,0,.805.78l136.259,78.7a4.107,4.107,0,0,0,1.34.453,5.544,5.544,0,0,0,.919.082,5.459,5.459,0,0,0,.906-.076,2.247,2.247,0,0,0,.3-.057,3.862,3.862,0,0,0,.812-.277c.088-.038.164-.082.245-.126L287.7,301.883C288.589,301.386,288.829,300.682,288.5,300.052Zm-14.679-2.794-4.272,2.473-56.936,32.844a3.456,3.456,0,0,1-.459.227,3.819,3.819,0,0,1-2.932,0,3.458,3.458,0,0,1-.459-.227l-108.1-62.41-5.235-3.014a2,2,0,0,1-.491-.39c-.541-.591-.371-1.346.491-1.85l61.183-35.323a3.851,3.851,0,0,1,2.372-.661,2.183,2.183,0,0,1,.585.157,1.89,1.89,0,0,1,.3.145l113.954,65.789a1.3,1.3,0,0,1,0,2.24Z" transform="translate(-77.808 -220.049)" fill="#b4a99d"/>
        <path id="Path_3846" data-name="Path 3846" d="M78.988,282.49A5.065,5.065,0,0,0,77,286.234v2.982a4.989,4.989,0,0,0,2.259,3.92l136.278,78.688a4.285,4.285,0,0,0,1.661.51c.2,0,.4.031.629.038h0v-8.217h0a7.329,7.329,0,0,1-.919-.075,4.158,4.158,0,0,1-1.346-.466L79.253,284.919C78.1,284.258,78.007,283.207,78.988,282.49Z" transform="translate(-77 -243.202)" fill="#958a7e"/>
        <path id="Path_3847" data-name="Path 3847" d="M348.9,372.114a9.092,9.092,0,0,0-8.066,0,3.255,3.255,0,0,0-1.208,1.1c-.724,1.258.629,2.2,1.208,2.555a9.092,9.092,0,0,0,8.066,0,3.41,3.41,0,0,0,1.208-1.1C350.833,373.41,349.5,372.466,348.9,372.114Z" transform="translate(-174.306 -276.085)" fill="#43290a"/>
        <path id="Path_3848" data-name="Path 3848" d="M140.813,256.283a.673.673,0,0,0,0-1.258,2.441,2.441,0,0,0-2.208,0,.673.673,0,0,0,0,1.258A2.441,2.441,0,0,0,140.813,256.283Z" transform="translate(-99.682 -232.92)" fill="#807468"/>
        <path id="Path_3849" data-name="Path 3849" d="M135.494,265.976a.629.629,0,0,0,0-1.132,2.2,2.2,0,0,0-1.963,0,.629.629,0,0,0,0,1.133A2.158,2.158,0,0,0,135.494,265.976Z" transform="translate(-97.83 -236.573)" fill="#807468"/>
        <path id="Path_3850" data-name="Path 3850" d="M140.649,259.221l10.973-6.336c.629-.346.629-.893.063-1.221a2.328,2.328,0,0,0-2.108.044l-10.973,6.33c-.6.352-.629.893-.063,1.221A2.328,2.328,0,0,0,140.649,259.221Z" transform="translate(-99.669 -231.687)" fill="#807468"/>
        <path id="Path_3851" data-name="Path 3851" d="M370.178,346.29c.931.724.831,1.749-.3,2.4l-66.827,38.582a4.542,4.542,0,0,1-2.259.535v8.211a4.587,4.587,0,0,0,2.253-.541L369.87,356.9a4.977,4.977,0,0,0,2.259-3.914V350A5.065,5.065,0,0,0,370.178,346.29Z" transform="translate(-159.982 -266.859)" fill="#807468"/>
        <path id="Path_3852" data-name="Path 3852" d="M121.115,313.982a2.517,2.517,0,0,1,1.17,1.938.717.717,0,0,1-.327.68c-.138.082-.667.4-.818.478a.862.862,0,0,1-.843-.094l-15.2-8.809a2.517,2.517,0,0,1-1.164-1.938.755.755,0,0,1,.3-.667l.843-.491a.862.862,0,0,1,.843.094Z" transform="translate(-86.988 -251.553)" fill="#b4a99d"/>
        <path id="Path_3853" data-name="Path 3853" d="M120.3,314.732l-15.2-8.771c-.629-.371-1.164-.107-1.164.591a2.517,2.517,0,0,0,1.164,1.938l15.2,8.809c.629.371,1.17.107,1.17-.592A2.517,2.517,0,0,0,120.3,314.732Z" transform="translate(-86.989 -251.843)" fill="#807468"/>
        <path id="Path_3854" data-name="Path 3854" d="M93.52,298.066a2.517,2.517,0,0,1,1.17,1.944.736.736,0,0,1-.321.68c-.145.076-.673.4-.818.478a.862.862,0,0,1-.843-.1l-7.167-4.134A2.517,2.517,0,0,1,84.377,295a.724.724,0,0,1,.3-.667c.138-.094.692-.409.843-.491a.843.843,0,0,1,.843.094Z" transform="translate(-79.734 -247.383)" fill="#b4a99d"/>
        <path id="Path_3855" data-name="Path 3855" d="M92.711,298.815l-7.167-4.134c-.629-.371-1.164-.107-1.164.591a2.517,2.517,0,0,0,1.164,1.938l7.167,4.134c.629.371,1.164.107,1.164-.591A2.517,2.517,0,0,0,92.711,298.815Z" transform="translate(-79.737 -247.66)" fill="#807468"/>
      </g>
      <g id="freepik--Window--inject-42" transform="translate(16.823 8.87)">
        <path id="Path_3857" data-name="Path 3857" d="M282.929,302.455l-4.272,2.466L221.72,337.772a4.456,4.456,0,0,1-.459.226,3.819,3.819,0,0,1-2.932,0,4.462,4.462,0,0,1-.459-.226l-108.1-62.41-5.229-3.02a1.849,1.849,0,0,1-.491-.384c-.541-.591-.371-1.353.491-1.856l61.183-35.317a3.85,3.85,0,0,1,2.372-.629,2.181,2.181,0,0,1,.585.157,1.889,1.889,0,0,1,.3.145l113.948,65.789a1.3,1.3,0,0,1,0,2.208Z" transform="translate(-103.737 -234.147)" fill="#fff" opacity="0.8"/>
        <path id="Path_3858" data-name="Path 3858" d="M124.542,286.842a.306.306,0,0,1-.088-.031l-.3-.176-.724.422a.113.113,0,0,1-.126,0L123.2,287l-.05-.038a.269.269,0,0,1,0-.044l-.3-1.063a.144.144,0,0,1,0-.044.107.107,0,0,1,.038-.038l.1-.057a.176.176,0,0,1,.094,0,.234.234,0,0,1,.094.032l1.044.629.164-.088a.114.114,0,0,1,.082,0,.19.19,0,0,1,.094.031l.069.038c.031,0,.05.038.05.05s0,.031-.044.05l-.157.094.3.17a.119.119,0,0,1,.05.05s0,.031-.05.05l-.12.075A.232.232,0,0,1,124.542,286.842Zm-.629-.378-.742-.434.22.736Z" transform="translate(-110.823 -253.267)" fill="#b4a99d"/>
        <path id="Path_3859" data-name="Path 3859" d="M125.8,285.664a2.014,2.014,0,0,1-.906-.277c-.3-.176-.459-.346-.478-.522s.1-.34.352-.491a2.155,2.155,0,0,1,.327-.145,1.747,1.747,0,0,1,.333-.069h.05l.063.12H125.5a1.221,1.221,0,0,0-.472.151c-.17.1-.252.214-.239.34s.138.245.371.378a1.466,1.466,0,0,0,.629.22,1.038,1.038,0,0,0,.56-.132l.164-.113a.457.457,0,0,0,.094-.107l-.491-.283-.3.17a.12.12,0,0,1-.088,0,.189.189,0,0,1-.088-.032l-.069-.038s-.05-.038-.05-.05,0-.031.044-.05l.478-.277a.213.213,0,0,1,.1,0,.182.182,0,0,1,.107.038l.7.4a.112.112,0,0,1,.05.038s0,0,0,.038a.812.812,0,0,1-.415.415A1.516,1.516,0,0,1,125.8,285.664Z" transform="translate(-111.405 -252.692)" fill="#b4a99d"/>
        <path id="Path_3860" data-name="Path 3860" d="M135.534,280.792c.233.138.233.352,0,.484a.894.894,0,0,1-.837,0c-.233-.132-.233-.346,0-.484A.932.932,0,0,1,135.534,280.792Z" transform="translate(-115.153 -251.406)" fill="#b4a99d"/>
        <path id="Path_3861" data-name="Path 3861" d="M133.44,280.067c-.422.245-.554.6-.39.906a.271.271,0,0,0,.252.094h0c.138,0,.239-.094.2-.17-.12-.22,0-.466.271-.629a1.667,1.667,0,0,1,1.1-.157c.138,0,.277,0,.3-.113h0c0-.069-.057-.126-.164-.151A2.518,2.518,0,0,0,133.44,280.067Z" transform="translate(-114.581 -251.078)" fill="#b4a99d"/>
        <path id="Path_3862" data-name="Path 3862" d="M132.207,279.357c-.629.359-.856.868-.673,1.34,0,.069.132.113.252.107h0c.138,0,.227-.088.2-.164-.145-.384.038-.8.547-1.095a3.2,3.2,0,0,1,1.888-.321c.138,0,.271,0,.283-.113h0c0-.069-.069-.132-.189-.145A3.826,3.826,0,0,0,132.207,279.357Z" transform="translate(-114.022 -250.752)" fill="#b4a99d"/>
        <path id="Path_3863" data-name="Path 3863" d="M152.269,269.568a.132.132,0,0,1-.069,0v-.044l.126-.629v-.044l.038-.038.22-.126a.126.126,0,0,1,.069,0,.133.133,0,0,1,.076,0l1.8,1.038a.038.038,0,0,1,0,.038.044.044,0,0,1,0,.044l-.227.132a.15.15,0,0,1-.076,0,.132.132,0,0,1-.076,0l-1.372-.793-.075.365-.038.038a.169.169,0,0,1-.082,0Z" transform="translate(-121.707 -246.952)" fill="#b4a99d"/>
        <path id="Path_3864" data-name="Path 3864" d="M154.5,268.278a.132.132,0,0,1-.076,0,.057.057,0,0,1,0-.044l.132-.629a.122.122,0,0,1,0-.044l.031-.038.22-.126a.131.131,0,0,1,.076,0,.15.15,0,0,1,.076,0l1.793,1.038v.044a.044.044,0,0,1,0,.038l-.227.132a.131.131,0,0,1-.075,0h-.076l-1.372-.793-.082.409a.088.088,0,0,1-.044.038.137.137,0,0,1-.075,0Z" transform="translate(-122.532 -246.474)" fill="#b4a99d"/>
        <path id="Path_3865" data-name="Path 3865" d="M157.2,267a.17.17,0,0,1,.076,0,.131.131,0,0,1,.075,0l.277.157a.038.038,0,0,1,0,.038.05.05,0,0,1,0,.044l-.258.151h-.075a.134.134,0,0,1-.076,0l-.277-.157a.05.05,0,0,1,0-.044.057.057,0,0,1,0-.044Zm.975.56a.163.163,0,0,1,.151,0l.271.157s.031,0,.031.044a.063.063,0,0,1-.031.044l-.258.145a.157.157,0,0,1-.151,0l-.271-.157s-.031,0-.031-.044a.044.044,0,0,1,.031-.038Z" transform="translate(-123.462 -246.326)" fill="#b4a99d"/>
        <path id="Path_3866" data-name="Path 3866" d="M160.775,266.262a.164.164,0,0,1-.151,0l-.333-.189-.862.5h-.076a.138.138,0,0,1-.075,0l-.2-.113c-.032,0-.044-.031-.05-.05a.107.107,0,0,1,0-.063l-.214-1.1a.094.094,0,0,1,.044-.107l.214-.126h.145l1.114.629.239-.138h.151l.2.12a.044.044,0,0,1,.031.038.05.05,0,0,1-.031.044l-.239.138.34.2s.031,0,0,.044a.05.05,0,0,1,0,.044Zm-.837-.39-.591-.346.12.629Z" transform="translate(-124.16 -245.591)" fill="#b4a99d"/>
        <path id="Path_3867" data-name="Path 3867" d="M160.728,263.786a.063.063,0,0,1,0-.044V263.7l1.044-.629a.157.157,0,0,1,.151,0l.2.113s.031,0,.031.044,0,.031-.031.044l-.78.447.327.227a.461.461,0,0,1,.113-.107l.113-.075a1.549,1.549,0,0,1,.333-.138,1.337,1.337,0,0,1,.352-.063,1.31,1.31,0,0,1,.352,0,1.258,1.258,0,0,1,.333.126.629.629,0,0,1,.245.214.283.283,0,0,1,.05.208.333.333,0,0,1-.107.2,1.373,1.373,0,0,1-.252.189,2.087,2.087,0,0,1-.371.164,1.825,1.825,0,0,1-.346.063,1.687,1.687,0,0,1-.315,0,1.039,1.039,0,0,1-.258-.088s-.031,0-.031-.044,0-.031.031-.044l.227-.132h.145a.772.772,0,0,0,.157.031h.151l.138-.044.126-.063c.107-.063.164-.126.17-.2s-.038-.132-.138-.189a.509.509,0,0,0-.3-.063.73.73,0,0,0-.346.094.934.934,0,0,0-.12.082.368.368,0,0,0-.05.063.126.126,0,0,1,0,.05.12.12,0,0,1-.05.044l-.258.151h-.145Z" transform="translate(-124.868 -244.864)" fill="#b4a99d"/>
        <path id="Path_3868" data-name="Path 3868" d="M112.859,294.58l-.579-.333.768-.447.579.334Z" transform="translate(-106.905 -256.266)" fill="#b4a99d"/>
        <path id="Path_3869" data-name="Path 3869" d="M114.358,293.324l-1.158-.667.768-.447,1.158.667Z" transform="translate(-107.246 -255.677)" fill="#b4a99d"/>
        <path id="Path_3870" data-name="Path 3870" d="M115.857,292.067l-1.737-1.007.768-.44,1.743,1Z" transform="translate(-107.587 -255.087)" fill="#b4a99d"/>
        <path id="Path_3871" data-name="Path 3871" d="M117.355,290.807l-2.315-1.34.774-.447,2.309,1.34Z" transform="translate(-107.928 -254.494)" fill="#b4a99d"/>
        <path id="Path_3872" data-name="Path 3872" d="M199.863,240.377a.862.862,0,0,0-.453.069l-2.888,1.661c-.189.107-.138.308.107.453l1.057.629a1.258,1.258,0,0,0,.51.151.9.9,0,0,0,.226,0,.628.628,0,0,0,.227-.063l2.888-1.661c.182-.113.138-.308-.113-.453l-1.051-.629A1.258,1.258,0,0,0,199.863,240.377Zm-1.7,2.831a.49.49,0,0,1-.214-.076l-1.057-.629c-.182-.107-.22-.264-.082-.346L199.7,240.5a.334.334,0,0,1,.12-.038h.069a.51.51,0,0,1,.22.075l1.051.629c.182.107.22.264.088.34l-2.888,1.667a.4.4,0,0,1-.2.038Z" transform="translate(-138.1 -236.455)" fill="#b4a99d"/>
        <path id="Path_3873" data-name="Path 3873" d="M197.975,242.92l1.258.717-.453.264a.277.277,0,0,1-.157,0l-.925-.535c-.132-.075-.164-.2-.063-.258Z" transform="translate(-138.533 -237.4)" fill="#b4a99d"/>
        <path id="Path_3874" data-name="Path 3874" d="M198.55,242.545l.541-.315,1.246.717-.547.315Z" transform="translate(-138.894 -237.144)" fill="#b4a99d"/>
        <path id="Path_3875" data-name="Path 3875" d="M199.75,241.855l.535-.315,1.252.724-.541.315Z" transform="translate(-139.339 -236.888)" fill="#b4a99d"/>
        <path id="Path_3876" data-name="Path 3876" d="M201.555,240.923l.9.522c.164.094.132.233-.094.359l-.182.107-1.258-.724.434-.245A.258.258,0,0,1,201.555,240.923Z" transform="translate(-139.773 -236.655)" fill="#b4a99d"/>
        <path id="Path_3877" data-name="Path 3877" d="M202.8,240.518a.774.774,0,0,1,.535.145l.195.113c.214.126.333.264.252.315l-.132.088-.994-.573Z" transform="translate(-140.418 -236.508)" fill="#b4a99d"/>
        <path id="Path_3878" data-name="Path 3878" d="M190.21,246.954l2.24-1.944,1.183,1.68-1.548-.422Z" transform="translate(-135.802 -238.175)" fill="#b4a99d"/>
      </g>
      <g id="freepik--Button--inject-42" transform="translate(118.893 65.956)">
        <path id="Path_3879" data-name="Path 3879" d="M266,358.333v.554a3.033,3.033,0,0,0,1.378,2.385l10.8,6.229a3.039,3.039,0,0,0,2.756,0l53.211-30.736a3.052,3.052,0,0,0,1.378-2.391v-.547a3.052,3.052,0,0,0-1.378-2.391l-10.8-6.229a3.039,3.039,0,0,0-2.756,0l-53.211,30.743A3.052,3.052,0,0,0,266,358.333Z" transform="translate(-265.975 -324.875)" fill="#43290a"/>
        <path id="Path_3880" data-name="Path 3880" d="M342.272,335.5c.573.434.51,1.07-.182,1.466l-53.211,30.743a2.9,2.9,0,0,1-1.378.333v3.725a2.793,2.793,0,0,0,1.384-.327L342.089,340.7a3.071,3.071,0,0,0,1.378-2.391v-.547A3.064,3.064,0,0,0,342.272,335.5Z" transform="translate(-273.947 -328.815)" fill="#43290a" opacity="0.15"/>
        <path id="Path_3881" data-name="Path 3881" d="M267.13,374.49a3.083,3.083,0,0,0-1.17,2.24v.554a3.027,3.027,0,0,0,1.384,2.385l10.791,6.229a2.757,2.757,0,0,0,1.378.327V382.5a2.879,2.879,0,0,1-1.378-.333l-10.8-6.229C266.652,375.547,266.614,374.93,267.13,374.49Z" transform="translate(-265.96 -343.272)" fill="#43290a" opacity="0.3"/>
        <path id="Path_3882" data-name="Path 3882" d="M292.494,368.206a.553.553,0,0,1,.277-.076,1.3,1.3,0,0,1,.245.031l5.663,1.586.126.044a.1.1,0,0,1,.057.088.094.094,0,0,1-.057.082l-.843.484a.5.5,0,0,1-.245.076.5.5,0,0,1-.182,0l-.742-.214-1.774,1.026.371.428a.151.151,0,0,1,.038.107c0,.044-.044.088-.132.138l-.843.484a.258.258,0,0,1-.145.038.283.283,0,0,1-.151-.038.176.176,0,0,1-.069-.069l-2.756-3.272a.245.245,0,0,1-.05-.138c0-.057.044-.107.132-.157Zm1.837,2.309,1.082-.629-2.146-.629Z" transform="translate(-275.349 -340.914)" fill="#b4a99d"/>
        <path id="Path_3883" data-name="Path 3883" d="M298.914,363.995a4.2,4.2,0,0,1,.982-.409,4.938,4.938,0,0,1,1.038-.157,3.974,3.974,0,0,1,1.026.094,3.773,3.773,0,0,1,.931.327l.258.145.226.132.22.126.239.145a1.887,1.887,0,0,1,.585.541.956.956,0,0,1,.164.579,1.126,1.126,0,0,1-.264.6,2.448,2.448,0,0,1-.7.56l-1.8,1.038a.328.328,0,0,1-.182.044.308.308,0,0,1-.176-.044l-4.316-2.485c-.05-.031-.076-.063-.076-.107a.113.113,0,0,1,.076-.1Zm2.712.554a1.655,1.655,0,0,0-1.674.082l-.68.4,2.517,1.466.711-.415c.56-.321.6-.629.107-.95l-.258-.157-.239-.138-.233-.132Z" transform="translate(-277.496 -339.169)" fill="#b4a99d"/>
        <path id="Path_3884" data-name="Path 3884" d="M306.584,359.565a4.2,4.2,0,0,1,.982-.409A4.94,4.94,0,0,1,308.61,359a4.239,4.239,0,0,1,1.019.094,3.62,3.62,0,0,1,.931.327l.264.145.22.132.22.126.245.145a1.94,1.94,0,0,1,.579.541.918.918,0,0,1,.164.579,1.063,1.063,0,0,1-.258.6,2.516,2.516,0,0,1-.7.56l-1.806,1.038a.319.319,0,0,1-.176.044.326.326,0,0,1-.182-.044l-4.316-2.485a.139.139,0,0,1-.076-.107.12.12,0,0,1,.076-.1Zm2.712.554a1.655,1.655,0,0,0-1.674.082l-.68.4,2.517,1.466.717-.415c.56-.321.591-.629.107-.95l-.258-.157c-.082-.044-.164-.088-.239-.138l-.239-.132Z" transform="translate(-280.34 -337.528)" fill="#b4a99d"/>
        <path id="Path_3885" data-name="Path 3885" d="M317.542,352.974a.321.321,0,0,1,.176-.044.327.327,0,0,1,.182.044l.711.409a.113.113,0,0,1,.069.1.119.119,0,0,1-.069.107l-1.177.642,3.423,1.976c.05,0,.076.063.076.107a.119.119,0,0,1-.076.1l-.875.5a.308.308,0,0,1-.176.044.326.326,0,0,1-.183-.044l-3.423-1.976-1.177.68a.41.41,0,0,1-.182.044.365.365,0,0,1-.176-.044l-.711-.409c-.05-.031-.076-.063-.076-.107a.119.119,0,0,1,.076-.1Z" transform="translate(-283.729 -335.278)" fill="#b4a99d"/>
        <path id="Path_3886" data-name="Path 3886" d="M322.92,352.4a1.887,1.887,0,0,1-.541-.5.881.881,0,0,1-.17-.566,1.152,1.152,0,0,1,.258-.6,2.7,2.7,0,0,1,.724-.585,4.251,4.251,0,0,1,1.013-.415,4.6,4.6,0,0,1,1.032-.151,3.877,3.877,0,0,1,.982.1,3.63,3.63,0,0,1,.868.308l.629.34.573.346a1.889,1.889,0,0,1,.541.5.881.881,0,0,1,.17.566,1.038,1.038,0,0,1-.258.629,2.45,2.45,0,0,1-.724.579,4.144,4.144,0,0,1-1.013.428,4.529,4.529,0,0,1-1.032.145,3.885,3.885,0,0,1-.982-.1,3.731,3.731,0,0,1-.868-.308c-.2-.1-.39-.214-.629-.333ZM327,351.373l-.252-.164-.289-.176-.308-.17-.271-.138a1.591,1.591,0,0,0-.378-.138,1.725,1.725,0,0,0-.4-.05,1.657,1.657,0,0,0-.421.057,1.851,1.851,0,0,0-.422.17.937.937,0,0,0-.3.245.4.4,0,0,0-.094.245.389.389,0,0,0,.082.233.9.9,0,0,0,.239.214,2.246,2.246,0,0,0,.239.157c.094.057.189.12.3.176l.3.17a3.066,3.066,0,0,0,.283.145,1.83,1.83,0,0,0,.787.189,1.547,1.547,0,0,0,.837-.233c.277-.157.4-.315.39-.478A.629.629,0,0,0,327,351.373Z" transform="translate(-286.817 -334.035)" fill="#b4a99d"/>
        <path id="Path_3887" data-name="Path 3887" d="M334.049,346l.233.145.315.182.321.189.258.132a1.57,1.57,0,0,0,.352.132,1.625,1.625,0,0,0,.4.063,1.975,1.975,0,0,0,.422-.05,1.56,1.56,0,0,0,.447-.182,1.087,1.087,0,0,0,.315-.245.549.549,0,0,0,.113-.214.3.3,0,0,0,0-.182.632.632,0,0,0-.1-.145.369.369,0,0,1-.076-.132.33.33,0,0,1,.113-.113l.875-.5a.346.346,0,0,1,.289,0,1.214,1.214,0,0,1,.478.466.811.811,0,0,1,.082.554,1.39,1.39,0,0,1-.308.585,2.552,2.552,0,0,1-.692.547,4.042,4.042,0,0,1-1,.409,4.221,4.221,0,0,1-1.032.151,3.9,3.9,0,0,1-.988-.1,3.241,3.241,0,0,1-.862-.308c-.2-.094-.39-.208-.629-.327a5.288,5.288,0,0,1-.585-.359,1.724,1.724,0,0,1-.541-.491.945.945,0,0,1-.164-.573,1.089,1.089,0,0,1,.252-.6,2.408,2.408,0,0,1,.717-.579,4.093,4.093,0,0,1,.95-.4,5.219,5.219,0,0,1,1.007-.182,4.052,4.052,0,0,1,.963.05,2.477,2.477,0,0,1,.805.271.107.107,0,0,1,.063.088.088.088,0,0,1-.063.082l-.875.51a.389.389,0,0,1-.2.063,1.49,1.49,0,0,1-.22-.044,1.348,1.348,0,0,0-.252-.057,1.259,1.259,0,0,0-.315,0,2.185,2.185,0,0,0-.371.063,1.881,1.881,0,0,0-.428.189.916.916,0,0,0-.315.258.39.39,0,0,0-.088.239.4.4,0,0,0,.1.233A1.492,1.492,0,0,0,334.049,346Z" transform="translate(-290.477 -331.917)" fill="#b4a99d"/>
        <path id="Path_3888" data-name="Path 3888" d="M341.218,340.076a.554.554,0,0,1,.277-.076,1.3,1.3,0,0,1,.245.032l5.663,1.586.126.044c.044,0,.063.05.063.088s0,.057-.063.082l-.837.485a.542.542,0,0,1-.252.075.623.623,0,0,1-.176,0l-.742-.214-1.781,1.026.371.428a.152.152,0,0,1,.038.107c0,.044-.044.088-.132.138l-.843.491a.347.347,0,0,1-.289,0,.214.214,0,0,1-.075-.075l-2.75-3.272a.209.209,0,0,1-.05-.138c0-.057.038-.107.126-.164Zm1.837,2.309,1.082-.629-2.146-.629Z" transform="translate(-293.418 -330.483)" fill="#b4a99d"/>
        <path id="Path_3889" data-name="Path 3889" d="M347.678,335.814a4.943,4.943,0,0,1,.881-.4,3.691,3.691,0,0,1,.868-.182,3.009,3.009,0,0,1,.856.063,2.823,2.823,0,0,1,.805.315,1.36,1.36,0,0,1,.629.629.629.629,0,0,1-.082.629l2.416.44a.235.235,0,0,1,.094.031c.044,0,.063.05.063.088s0,.057-.063.082l-.906.522a.416.416,0,0,1-.252.076h-.208l-2.171-.4-.629.352,1.428.824c.05,0,.076.063.076.107a.119.119,0,0,1-.076.1l-.875.5a.321.321,0,0,1-.176.044.328.328,0,0,1-.182-.044l-4.316-2.485a.12.12,0,0,1-.069-.107.126.126,0,0,1,.069-.107Zm1.258,1.6.761-.447a.836.836,0,0,0,.359-.327c.05-.113,0-.227-.2-.333a.857.857,0,0,0-.573-.113,1.562,1.562,0,0,0-.573.2l-.755.441Z" transform="translate(-295.561 -328.714)" fill="#b4a99d"/>
        <path id="Path_3890" data-name="Path 3890" d="M356.236,330.594a.4.4,0,0,1,.365,0l.7.409a.12.12,0,0,1,.075.1c0,.044,0,.076-.075.107l-1.177.68,3.429,1.976a.12.12,0,0,1,.069.107.113.113,0,0,1-.069.1l-.875.51a.459.459,0,0,1-.365,0L354.9,332.6l-1.177.68a.383.383,0,0,1-.176.044.389.389,0,0,1-.182-.044l-.711-.409a.133.133,0,0,1-.069-.107.12.12,0,0,1,.069-.1Z" transform="translate(-298.079 -326.98)" fill="#b4a99d"/>
        <path id="Path_3891" data-name="Path 3891" d="M279.252,373.569c-1.693.975-1.693,2.555,0,3.523a6.745,6.745,0,0,0,6.11,0c1.686-.969,1.686-2.548,0-3.523A6.745,6.745,0,0,0,279.252,373.569Zm5.034,1.151-1.133.629,1.133.629a.227.227,0,0,1,0,.434.824.824,0,0,1-.749,0l-1.139-.629-1.133.629a.824.824,0,0,1-.749,0,.227.227,0,0,1,0-.434l1.133-.629-1.133-.629a.226.226,0,0,1,0-.434.824.824,0,0,1,.749,0l1.133.629,1.139-.629a.824.824,0,0,1,.749,0,.228.228,0,1,1-.05.453Z" transform="translate(-270.418 -342.66)" fill="#b4a99d"/>
      </g>
    </g>
  </g>
  <g id="freepik--Cart--inject-42" transform="translate(75.746 71.13)">
    <g id="freepik--cart--inject-42-2" data-name="freepik--cart--inject-42" transform="translate(0 0)">
      <path id="Path_3892" data-name="Path 3892" d="M292.215,303.947a9.35,9.35,0,0,0-4.19-7.362,2.9,2.9,0,0,0-3.1-.239h0l-2.863,1.611,6.009,10.363,2.838-1.611h0A2.976,2.976,0,0,0,292.215,303.947Z" transform="translate(-206.519 -210.038)" fill="#b4a99d"/>
      <path id="Path_3893" data-name="Path 3893" d="M284.3,299.262a9.381,9.381,0,0,1,4.19,7.362c0,2.706-1.925,3.775-4.253,2.422a9.381,9.381,0,0,1-4.19-7.362C280.069,298.979,281.975,297.9,284.3,299.262Z" transform="translate(-205.773 -211.029)" fill="#958a7e"/>
      <path id="Path_3894" data-name="Path 3894" d="M284.49,305.322c0-1.057.629-1.542,1.441-1.076a3.417,3.417,0,0,1,1.416,2.75c0,1.057-.629,1.535-1.441,1.076A3.448,3.448,0,0,1,284.49,305.322Z" transform="translate(-207.42 -213.03)" fill="#807468"/>
      <path id="Path_3895" data-name="Path 3895" d="M288.5,307.153a7.768,7.768,0,0,0-.579-2.831L280.65,300.1a3.637,3.637,0,0,0-.591,2.114v.1l8.431,4.9A.492.492,0,0,0,288.5,307.153Z" transform="translate(-205.776 -211.558)" fill="#43290a" opacity="0.15"/>
      <path id="Path_3896" data-name="Path 3896" d="M220.5,304.751a9.066,9.066,0,0,1-4.48-.805L176.384,281.1c-2.4-1.208-5.09-4.341-5.26-7.311l-1.214-28.257,2.208-.126,1.221,28.264c.113,2.013,2.221,4.543,4.033,5.449l39.671,22.852a7.62,7.62,0,0,0,6.657-.384l26.426-15.239c.629-.415,1-.912.975-1.334s-.422-.837-1.095-1.177l-42.465-24.652c-2.391-1.2-5.071-4.342-5.241-7.311L201.71,236.2l2.208-.12.591,15.667c.113,2.026,2.221,4.549,4.027,5.455L251,281.861a3.419,3.419,0,0,1,.34,6.336l-26.426,15.239a9.167,9.167,0,0,1-4.411,1.315Z" transform="translate(-164.933 -187.82)" fill="#b4a99d"/>
      <path id="Path_3897" data-name="Path 3897" d="M233.015,339.525a9.35,9.35,0,0,0-4.19-7.362,2.874,2.874,0,0,0-3.1-.239h0l-2.869,1.611,6.009,10.363,2.838-1.611h0A2.976,2.976,0,0,0,233.015,339.525Z" transform="translate(-184.567 -223.23)" fill="#b4a99d"/>
      <path id="Path_3898" data-name="Path 3898" d="M225.087,334.839a9.35,9.35,0,0,1,4.19,7.368c0,2.7-1.919,3.775-4.253,2.416a9.362,9.362,0,0,1-4.184-7.362C220.859,334.563,222.759,333.462,225.087,334.839Z" transform="translate(-183.818 -224.219)" fill="#958a7e"/>
      <path id="Path_3899" data-name="Path 3899" d="M225.27,340.9c0-1.057.629-1.542,1.441-1.076a3.4,3.4,0,0,1,1.416,2.75c0,1.051-.629,1.535-1.435,1.07A3.423,3.423,0,0,1,225.27,340.9Z" transform="translate(-185.461 -226.223)" fill="#807468"/>
      <path id="Path_3900" data-name="Path 3900" d="M186.443,312.671a9.35,9.35,0,0,0-4.172-7.368,2.9,2.9,0,0,0-3.1-.245h0l-2.869,1.6,5.99,10.375,2.844-1.611h0A2.958,2.958,0,0,0,186.443,312.671Z" transform="translate(-167.303 -213.269)" fill="#b4a99d"/>
      <path id="Path_3901" data-name="Path 3901" d="M178.543,307.978a9.363,9.363,0,0,1,4.178,7.343c0,2.7-1.932,3.775-4.26,2.41a9.35,9.35,0,0,1-4.172-7.368C174.309,307.683,176.215,306.607,178.543,307.978Z" transform="translate(-166.557 -214.258)" fill="#958a7e"/>
      <path id="Path_3902" data-name="Path 3902" d="M178.72,314.025c0-1.051.629-1.535,1.441-1.07a3.429,3.429,0,0,1,1.416,2.75c0,1.057-.629,1.535-1.447,1.076a3.455,3.455,0,0,1-1.409-2.756Z" transform="translate(-168.2 -216.26)" fill="#807468"/>
      <path id="Path_3903" data-name="Path 3903" d="M162.239,182.849a7.368,7.368,0,0,1,2.825-7.84l26.37-14.906c2.4-1.573,5.034-.478,5.864,2.259l1.831,5.933-1.812,1.057-1.969-6a1.995,1.995,0,0,0-3.146-1.1l-25.678,14.5a4.839,4.839,0,0,0-1.844,5.034l1.548,5.694-2.158,1.258Z" transform="translate(-162 -159.379)" fill="#b4a99d"/>
      <path id="Path_3904" data-name="Path 3904" d="M206.3,242.12,170.88,262.575l51.77,29.887,35.424-20.455Z" transform="translate(-165.293 -190.059)" fill="#43290a"/>
      <path id="Path_3905" data-name="Path 3905" d="M206.3,242.12,170.88,262.575l51.77,29.887,35.424-20.455Z" transform="translate(-165.293 -190.059)" fill="#43290a" opacity="0.5"/>
      <path id="Path_3906" data-name="Path 3906" d="M165.29,194.04l35.059-20.48,3.882,43.138-35.424,20.455Z" transform="translate(-163.22 -164.637)" fill="#43290a"/>
      <path id="Path_3907" data-name="Path 3907" d="M165.29,194.04l35.059-20.48,3.882,43.138-35.424,20.455Z" transform="translate(-163.22 -164.637)" fill="#43290a" opacity="0.35"/>
      <path id="Path_3908" data-name="Path 3908" d="M221,173.56l3.882,43.138,51.77,29.887,8.18-36.185Zm18.1,41.477a2.976,2.976,0,0,1-3.712-1.925l-8.557-22.2a2.794,2.794,0,1,1,5.178-1.969l8.557,22.2a2.97,2.97,0,0,1-1.46,3.895Zm16.164,7.6a2.964,2.964,0,0,1-3.712-1.919l-8.532-22.2a2.794,2.794,0,1,1,5.172-1.995l8.557,22.2a2.964,2.964,0,0,1-1.479,3.914Zm16.164,7.607a2.964,2.964,0,0,1-3.712-1.888l-8.551-22.2a2.787,2.787,0,1,1,5.166-1.995l8.557,22.2a2.963,2.963,0,0,1-1.453,3.882Z" transform="translate(-183.877 -164.637)" fill="#43290a"/>
      <path id="Path_3909" data-name="Path 3909" d="M221,173.56l3.882,43.138,51.77,29.887,8.18-36.185Zm18.1,41.477a2.976,2.976,0,0,1-3.712-1.925l-8.557-22.2a2.794,2.794,0,1,1,5.178-1.969l8.557,22.2a2.97,2.97,0,0,1-1.46,3.895Zm16.164,7.6a2.964,2.964,0,0,1-3.712-1.919l-8.532-22.2a2.794,2.794,0,1,1,5.172-1.995l8.557,22.2a2.964,2.964,0,0,1-1.479,3.914Zm16.164,7.607a2.964,2.964,0,0,1-3.712-1.888l-8.551-22.2a2.787,2.787,0,1,1,5.166-1.995l8.557,22.2a2.963,2.963,0,0,1-1.453,3.882Z" transform="translate(-183.877 -164.637)" fill="#43290a" opacity="0.23"/>
      <path id="Path_3910" data-name="Path 3910" d="M165.29,206.11l3.517,43.113,51.77,29.887,8.18-36.179Zm20.436,42.439a2.976,2.976,0,0,1-3.712-1.925l-8.551-22.2a2.787,2.787,0,1,1,5.166-1.988l8.557,22.2A2.97,2.97,0,0,1,185.726,248.549Zm16.164,7.6a2.964,2.964,0,0,1-3.712-1.919l-8.532-22.2a2.794,2.794,0,1,1,5.172-1.995l8.551,22.2a2.964,2.964,0,0,1-1.479,3.914Zm16.164,7.607a2.957,2.957,0,0,1-3.706-1.919l-8.557-22.2a2.794,2.794,0,1,1,5.172-1.995l8.551,22.2A2.964,2.964,0,0,1,218.055,263.757Z" transform="translate(-163.22 -176.707)" fill="#43290a"/>
      <g id="Group_9203" data-name="Group 9203" transform="translate(2.07 29.403)" opacity="0.15">
        <path id="Path_3911" data-name="Path 3911" d="M165.29,206.11l3.517,43.113,51.77,29.887,8.18-36.179Zm20.436,42.439a2.976,2.976,0,0,1-3.712-1.925l-8.551-22.2a2.787,2.787,0,1,1,5.166-1.988l8.557,22.2A2.97,2.97,0,0,1,185.726,248.549Zm16.164,7.6a2.964,2.964,0,0,1-3.712-1.919l-8.532-22.2a2.794,2.794,0,1,1,5.172-1.995l8.551,22.2a2.964,2.964,0,0,1-1.479,3.914Zm16.164,7.607a2.957,2.957,0,0,1-3.706-1.919l-8.557-22.2a2.794,2.794,0,1,1,5.172-1.995l8.551,22.2A2.964,2.964,0,0,1,218.055,263.757Z" transform="translate(-165.29 -206.11)" fill="#43290a"/>
      </g>
      <path id="Path_3912" data-name="Path 3912" d="M261.333,252.575l35.424-20.455-8.173,36.185L253.16,288.754Z" transform="translate(-195.802 -186.351)" fill="#43290a"/>
      <path id="Path_3913" data-name="Path 3913" d="M261.333,252.575l35.424-20.455-8.173,36.185L253.16,288.754Z" transform="translate(-195.802 -186.351)" fill="#43290a" opacity="0.4"/>
    </g>
  </g>
  <g id="freepik--Arrow--inject-42" transform="translate(129.694 47.819)">
    <g id="freepik--arrow--inject-42-2" data-name="freepik--arrow--inject-42">
      <path id="Path_3914" data-name="Path 3914" d="M272.084,133.75l-4.09,2.4.013-12.389-2.479-1.428L254.3,128.811l-.019,15.283L247.74,147.8l14.648,9.5,12.175-22.123Z" transform="translate(-247.74 -122.33)" fill="#958a7e"/>
      <path id="Path_3915" data-name="Path 3915" d="M258.243,131.081l-.019,15.283-6.544,3.712,12.169,8.066,12.175-22.123-6.575,3.863.019-15.283Z" transform="translate(-249.201 -123.172)" fill="#b4a99d"/>
      <path id="Path_3916" data-name="Path 3916" d="M258.159,132.63l2.479,1.428-.019,15.283-2.479-1.428Z" transform="translate(-251.596 -126.149)" fill="#807468"/>
    </g>
  </g>
  <g id="freepik--Bag--inject-42" transform="translate(73.714)">
    <g id="freepik--bag--inject-42-2" data-name="freepik--bag--inject-42">
      <path id="Path_3917" data-name="Path 3917" d="M177.57,118.553l35.474-20.48L210.087,55.4,177.57,74.175Z" transform="translate(-165.741 -49.693)" fill="#43290a"/>
      <path id="Path_3918" data-name="Path 3918" d="M177.57,118.553l35.474-20.48L210.087,55.4,177.57,74.175Z" transform="translate(-165.741 -49.693)" fill="#fff" opacity="0.6"/>
      <path id="Path_3919" data-name="Path 3919" d="M172.342,71.157V67.74l-8.872-1.705L195.987,47.26l2.957,5.122h5.914Z" transform="translate(-160.513 -46.675)" fill="#43290a"/>
      <path id="Path_3920" data-name="Path 3920" d="M172.342,71.157V67.74l-8.872-1.705L195.987,47.26l2.957,5.122h5.914Z" transform="translate(-160.513 -46.675)" fill="#fff" opacity="0.3"/>
      <path id="Path_3921" data-name="Path 3921" d="M215.15,47.26V57.5l2.957-1.705V52.382Z" transform="translate(-179.676 -46.675)" fill="#43290a"/>
      <path id="Path_3922" data-name="Path 3922" d="M215.15,47.26V57.5l2.957-1.705V52.382Z" transform="translate(-179.676 -46.675)" fill="#43290a" opacity="0.1"/>
      <path id="Path_3923" data-name="Path 3923" d="M225.764,55.4H219.85v3.417Z" transform="translate(-181.419 -49.693)" fill="#43290a"/>
      <path id="Path_3924" data-name="Path 3924" d="M225.764,55.4H219.85v3.417Z" transform="translate(-181.419 -49.693)" fill="#43290a" opacity="0.2"/>
      <path id="Path_3925" data-name="Path 3925" d="M161.727,77.1l-2.957,42.672L170.6,126.6V78.805Z" transform="translate(-158.77 -57.739)" fill="#43290a"/>
      <path id="Path_3926" data-name="Path 3926" d="M161.727,77.1l-2.957,42.672L170.6,126.6V78.805Z" transform="translate(-158.77 -57.739)" fill="#43290a" opacity="0.1"/>
      <path id="Path_3927" data-name="Path 3927" d="M174.085,79.81l-5.915,44.377,5.915,3.417Z" transform="translate(-162.256 -58.744)" fill="#43290a"/>
      <path id="Path_3928" data-name="Path 3928" d="M174.085,79.81l-5.915,44.377,5.915,3.417Z" transform="translate(-162.256 -58.744)" fill="#43290a" opacity="0.2"/>
      <path id="Path_3929" data-name="Path 3929" d="M170.6,151.576l-5.424-7.116-6.405.289Z" transform="translate(-158.77 -82.716)" fill="#43290a"/>
      <path id="Path_3930" data-name="Path 3930" d="M178.71,75.377c0,.579.4.818.906.529a2.026,2.026,0,0,0,.912-1.579c0-.579-.409-.818-.912-.529A2.02,2.02,0,0,0,178.71,75.377Z" transform="translate(-166.164 -56.469)" fill="#37474f"/>
      <path id="Path_3931" data-name="Path 3931" d="M197.94,64.527c0,.579.409.818.912.522a2.007,2.007,0,0,0,.912-1.573c0-.579-.409-.818-.912-.529A2.02,2.02,0,0,0,197.94,64.527Z" transform="translate(-173.294 -52.446)" fill="#37474f"/>
      <path id="Path_3932" data-name="Path 3932" d="M179.972,64.577a.308.308,0,0,1-.3-.3V56.819c0-3.253,2.781-7.5,6.2-9.476,1.888-1.1,3.712-1.315,4.964-.591a3.411,3.411,0,0,1,1.548,3.146v7.55a.308.308,0,0,1-.308.3.3.3,0,0,1-.3-.3V49.9a2.794,2.794,0,0,0-1.258-2.63c-1.057-.629-2.649-.4-4.354.591-3.253,1.888-5.9,5.889-5.9,8.947v7.469A.308.308,0,0,1,179.972,64.577Z" transform="translate(-166.52 -46.33)" fill="#37474f"/>
      <path id="Path_3933" data-name="Path 3933" d="M193,83.517c0,.579.409.812.912.522a2.007,2.007,0,0,0,.912-1.573c0-.579-.409-.818-.912-.529A2.02,2.02,0,0,0,193,83.517Z" transform="translate(-171.463 -59.487)" fill="#b4a99d"/>
      <path id="Path_3934" data-name="Path 3934" d="M212.26,72.666c0,.579.409.812.912.522a2.007,2.007,0,0,0,.912-1.573c0-.585-.409-.818-.912-.529A2.007,2.007,0,0,0,212.26,72.666Z" transform="translate(-178.604 -55.464)" fill="#b4a99d"/>
      <path id="Path_3935" data-name="Path 3935" d="M194.3,72.735a.3.3,0,0,1-.3-.3V64.971c0-3.247,2.781-7.494,6.2-9.438,1.888-1.1,3.712-1.315,4.964-.591a3.42,3.42,0,0,1,1.542,3.146v7.55a.3.3,0,0,1-.3.308.308.308,0,0,1-.308-.308v-7.55a2.772,2.772,0,0,0-1.258-2.624c-1.057-.629-2.643-.4-4.354.591-3.253,1.888-5.9,5.889-5.9,8.941v7.443a.308.308,0,0,1-.3.3Z" transform="translate(-171.833 -49.367)" fill="#b4a99d"/>
    </g>
  </g>
  <g id="freepik--credit-card--inject-42" transform="translate(0 182.488)">
    <g id="freepik--Card--inject-42">
      <path id="Path_3936" data-name="Path 3936" d="M110.527,418.444,151.7,394.673a1.938,1.938,0,0,0,1.114-1.7c0-.629,0-2.919,0-2.919s-1.1,1.573-1.12,1.586l-31.177,18-10,5.77a5.958,5.958,0,0,1-5.417,0l-62.354-36s-1.057-1.258-1.082-1.258-.057,2.152,0,2.869a1.888,1.888,0,0,0,1.082,1.441l62.36,35.99a5.952,5.952,0,0,0,5.424-.006Z" transform="translate(-41.62 -351.857)" fill="#43290a"/>
      <path id="Path_3937" data-name="Path 3937" d="M110.527,418.444,151.7,394.673a1.938,1.938,0,0,0,1.114-1.7c0-.629,0-2.919,0-2.919s-1.1,1.573-1.12,1.586l-31.177,18-10,5.77a5.958,5.958,0,0,1-5.417,0l-62.354-36s-1.057-1.258-1.082-1.258-.057,2.152,0,2.869a1.888,1.888,0,0,0,1.082,1.441l62.36,35.99a5.952,5.952,0,0,0,5.424-.006Z" transform="translate(-41.62 -351.857)" fill="#43290a" opacity="0.15"/>
      <path id="Path_3938" data-name="Path 3938" d="M197.7,405.5h0v3.039l11.867-6.852a1.938,1.938,0,0,0,1.114-1.7c0-.629,0-2.919,0-2.919s-1.1,1.573-1.12,1.586Z" transform="translate(-99.491 -358.873)" fill="#958a7e"/>
      <path id="Path_3939" data-name="Path 3939" d="M151.7,376.145a.146.146,0,0,0,.057-.05c1.435-.849,1.409-2.234-.057-3.083l-62.366-36a6,6,0,0,0-5.417,0L42.738,360.78c-1.485.856-1.491,2.234-.057,3.089l.057.044,62.354,36a5.958,5.958,0,0,0,5.417,0l10-5.77Z" transform="translate(-41.615 -336.362)" fill="#43290a"/>
      <path id="Path_3940" data-name="Path 3940" d="M157.765,382.991l11.873-6.846a.145.145,0,0,0,.057-.05c1.435-.849,1.409-2.234-.057-3.083l-62.366-36a6,6,0,0,0-5.417,0L90,343.861Z" transform="translate(-59.556 -336.362)" fill="#b4a99d"/>
      <path id="Path_3941" data-name="Path 3941" d="M41.665,378.17s-.057,2.152,0,2.869a1.887,1.887,0,0,0,1.082,1.428l62.36,35.99a5.739,5.739,0,0,0,3.435.629v-3.039a5.864,5.864,0,0,1-3.442-.629l-62.354-36S41.69,378.183,41.665,378.17Z" transform="translate(-41.624 -351.865)" fill="#43290a" opacity="0.15"/>
      <path id="Path_3942" data-name="Path 3942" d="M73,370.3l-1.208-.7a.157.157,0,0,1-.088-.107.1.1,0,0,1,.063-.107.377.377,0,0,1,.182-.038.441.441,0,0,1,.189.05l.4.233,1.743-1.026a.208.208,0,0,0,.126-.208c0-.088-.069-.157-.176-.226h0a.164.164,0,0,1-.094-.113.113.113,0,0,1,.069-.1.27.27,0,0,1,.2.019.366.366,0,0,1,.189.05h0a.629.629,0,0,1,.365.447.415.415,0,0,1-.252.422l-1.768.969.4.233c.057.031.088.069.088.113a.1.1,0,0,1-.063.107.328.328,0,0,1-.182,0A.351.351,0,0,1,73,370.3Z" transform="translate(-52.77 -348.076)" fill="#fff"/>
      <path id="Path_3943" data-name="Path 3943" d="M78.09,372.137l-.805-.466a.823.823,0,0,0-.384-.1.667.667,0,0,0-.365.076l-.258.145s-.038.031,0,.057,0,.038.044.057l1.711.988a.157.157,0,0,1,.088.107.1.1,0,0,1-.063.107.327.327,0,0,1-.182.038.473.473,0,0,1-.2-.057l-2.007-1.158a.164.164,0,0,1-.094-.113.1.1,0,0,1,.063-.1l.522-.3a1.31,1.31,0,0,1,.73-.151,1.7,1.7,0,0,1,.774.208l.8.466a.88.88,0,0,0,.39.107.629.629,0,0,0,.365-.076l.346-.2a.214.214,0,0,0,.132-.214.353.353,0,0,0-.189-.227l-.8-.459a.857.857,0,0,0-.39-.107.667.667,0,0,0-.365.076.365.365,0,0,1-.176.038.4.4,0,0,1-.2-.057.163.163,0,0,1-.094-.107.107.107,0,0,1,.069-.107,1.257,1.257,0,0,1,.724-.151,1.611,1.611,0,0,1,.774.214l.805.466a.629.629,0,0,1,.365.447.415.415,0,0,1-.258.415l-.346.2a1.309,1.309,0,0,1-.73.151A1.654,1.654,0,0,1,78.09,372.137Z" transform="translate(-54.209 -349.003)" fill="#fff"/>
      <path id="Path_3944" data-name="Path 3944" d="M84,375.64l-.176.1a1.346,1.346,0,0,1-.724.145,1.679,1.679,0,0,1-.787-.245l-.805-.466a.629.629,0,0,1-.365-.447.428.428,0,0,1,.258-.422.328.328,0,0,1,.182-.031.41.41,0,0,1,.2.05.17.17,0,0,1,.088.113.094.094,0,0,1-.063.1.208.208,0,0,0-.126.214.3.3,0,0,0,.182.22l.8.466a.856.856,0,0,0,.39.107.628.628,0,0,0,.359-.076l.176-.1a.208.208,0,0,0,.126-.208.3.3,0,0,0-.182-.227l-.2-.113c-.057-.038-.088-.069-.094-.113s0-.076.063-.107a.4.4,0,0,1,.378,0l.2.113a.832.832,0,0,0,.384.107.629.629,0,0,0,.365-.076l.176-.1a.208.208,0,0,0,.126-.208.314.314,0,0,0-.182-.227l-.805-.459a.83.83,0,0,0-.384-.107.667.667,0,0,0-.365.076.321.321,0,0,1-.182.031.39.39,0,0,1-.2-.05.176.176,0,0,1-.088-.107.107.107,0,0,1,.063-.107,1.309,1.309,0,0,1,.73-.151,1.655,1.655,0,0,1,.774.214l.8.459a.629.629,0,0,1,.365.447.415.415,0,0,1-.258.422l-.17.1a1.133,1.133,0,0,1-.365.126,2.461,2.461,0,0,1-.434,0,.352.352,0,0,1,0,.252A.63.63,0,0,1,84,375.64Z" transform="translate(-56.27 -350.071)" fill="#fff"/>
      <path id="Path_3945" data-name="Path 3945" d="M88.848,378.929a.389.389,0,0,1-.2-.05.17.17,0,0,1-.088-.113.1.1,0,0,1,.063-.1l.969-.56a1.6,1.6,0,0,1-.5-.176l-.805-.466a.629.629,0,0,1-.365-.447.415.415,0,0,1,.258-.415l.868-.5a.39.39,0,0,1,.182-.038.408.408,0,0,1,.2.05.17.17,0,0,1,.088.113.1.1,0,0,1-.063.107l-.868.5a.214.214,0,0,0-.132.208.333.333,0,0,0,.182.22l.805.466a.851.851,0,0,0,.384.107.63.63,0,0,0,.365-.076l.868-.5a.408.408,0,0,1,.182-.038.471.471,0,0,1,.2.05.163.163,0,0,1,.088.113.1.1,0,0,1-.063.107L89.03,378.9a.322.322,0,0,1-.182.031Z" transform="translate(-58.788 -351.082)" fill="#fff"/>
      <path id="Path_3946" data-name="Path 3946" d="M98.295,382.672v.057a.113.113,0,0,0,.044.057l1.107.629a.629.629,0,0,1,.365.447.422.422,0,0,1-.258.422l-.346.2a1.366,1.366,0,0,1-.73.145,1.674,1.674,0,0,1-.768-.208l-.805-.466a.629.629,0,0,1-.365-.447.421.421,0,0,1,.258-.422.391.391,0,0,1,.182-.038.5.5,0,0,1,.2.057.17.17,0,0,1,.088.113.1.1,0,0,1-.063.1.208.208,0,0,0-.132.214.334.334,0,0,0,.182.22l.805.466a.824.824,0,0,0,.384.1.63.63,0,0,0,.365-.069l.346-.2a.214.214,0,0,0,.132-.214.333.333,0,0,0-.182-.22l-1.208-.7a.334.334,0,0,1-.182-.22.2.2,0,0,1,.132-.208l.868-.5a.284.284,0,0,1,.182-.038.384.384,0,0,1,.189.05l2.013,1.158a.17.17,0,0,1,.088.113.1.1,0,0,1-.063.107.378.378,0,0,1-.182.038.44.44,0,0,1-.189-.057l-1.711-.988h-.094a.151.151,0,0,0-.094,0Z" transform="translate(-61.98 -353.265)" fill="#fff"/>
      <path id="Path_3947" data-name="Path 3947" d="M103.7,386.019l.805.466a.629.629,0,0,1,.365.447.422.422,0,0,1-.258.422l-.346.2a1.353,1.353,0,0,1-.73.145,1.655,1.655,0,0,1-.774-.214l-.8-.459a.629.629,0,0,1-.365-.447.415.415,0,0,1,.252-.422l1.4-.805a1.345,1.345,0,0,1,.724-.145,1.68,1.68,0,0,1,.774.208l.805.466a.629.629,0,0,1,.365.447.422.422,0,0,1-.258.422.27.27,0,0,1-.182.038.415.415,0,0,1-.189-.057.164.164,0,0,1-.094-.107.1.1,0,0,1,.063-.107.24.24,0,0,0,.132-.208.321.321,0,0,0-.189-.227l-.8-.466a.85.85,0,0,0-.39-.1.692.692,0,0,0-.359.069l-.447.258A1.656,1.656,0,0,1,103.7,386.019Zm-1.447.371a.208.208,0,0,0-.126.208.315.315,0,0,0,.182.227l.805.466a.849.849,0,0,0,.384.107.629.629,0,0,0,.365-.076l.352-.2a.208.208,0,0,0,.126-.208.321.321,0,0,0-.189-.227l-.8-.466a.855.855,0,0,0-.39-.107.629.629,0,0,0-.359.076Z" transform="translate(-63.856 -354.473)" fill="#fff"/>
      <path id="Path_3948" data-name="Path 3948" d="M110.623,389.785l-2.385.333h-.378a.227.227,0,0,1-.1-.107.152.152,0,0,1,.076-.113.863.863,0,0,1,.277-.038c.761-.107,1.5-.22,2.208-.333a.629.629,0,0,0,.208-.057l.17-.063.057-.031a.208.208,0,0,0,.126-.214.3.3,0,0,0-.182-.22l-.4-.233-.2-.113-.805-.466a.164.164,0,0,1-.094-.113.1.1,0,0,1,.063-.1.29.29,0,0,1,.182-.038.392.392,0,0,1,.2.05l.805.466.2.113.4.233a.629.629,0,0,1,.359.447.415.415,0,0,1-.252.422,2.141,2.141,0,0,1-.283.12A1.438,1.438,0,0,1,110.623,389.785Z" transform="translate(-66.142 -355.464)" fill="#fff"/>
      <path id="Path_3949" data-name="Path 3949" d="M114.653,393.358l-.176.1a1.259,1.259,0,0,1-.724.151,1.611,1.611,0,0,1-.774-.214l-.805-.459a.629.629,0,0,1-.365-.447.428.428,0,0,1,.258-.422l.176-.1a1.142,1.142,0,0,1,.359-.126,1.657,1.657,0,0,1,.434,0,.39.39,0,0,1,0-.252.629.629,0,0,1,.22-.208l.17-.1a1.366,1.366,0,0,1,.73-.145,1.724,1.724,0,0,1,.774.208l.8.466a.629.629,0,0,1,.365.447.415.415,0,0,1-.252.422l-.176.1a1.134,1.134,0,0,1-.365.12,1.657,1.657,0,0,1-.434,0,.352.352,0,0,1,0,.252A.522.522,0,0,1,114.653,393.358Zm.818-.931a.208.208,0,0,0,.126-.214.314.314,0,0,0-.182-.22l-.805-.466a.832.832,0,0,0-.384-.107.805.805,0,0,0-.365.076l-.17.1a.208.208,0,0,0-.132.214.334.334,0,0,0,.182.22l.805.466a.826.826,0,0,0,.384.1.717.717,0,0,0,.365-.069Zm-1.221.7a.2.2,0,0,0,.126-.208.3.3,0,0,0-.182-.22l-.8-.466a.857.857,0,0,0-.39-.107.63.63,0,0,0-.359.076l-.176.1a.208.208,0,0,0-.126.208.3.3,0,0,0,.182.226l.8.459a.786.786,0,0,0,.39.107.63.63,0,0,0,.359-.075Z" transform="translate(-67.643 -356.671)" fill="#fff"/>
      <path id="Path_3950" data-name="Path 3950" d="M123.2,399.285l-.805-.466a.629.629,0,0,1-.365-.44.415.415,0,0,1,.258-.422.379.379,0,0,1,.182-.038.415.415,0,0,1,.2.057.176.176,0,0,1,.088.107.107.107,0,0,1-.063.107.214.214,0,0,0-.132.208.327.327,0,0,0,.182.226l.805.459a.855.855,0,0,0,.39.107.729.729,0,0,0,.365-.069l.44-.258a1.6,1.6,0,0,1-.5-.183l-.8-.459a.629.629,0,0,1-.365-.447.422.422,0,0,1,.258-.422l.346-.2a1.364,1.364,0,0,1,.73-.145,1.673,1.673,0,0,1,.768.208l.805.466a.629.629,0,0,1,.365.447.415.415,0,0,1-.252.422l-1.4.8a1.258,1.258,0,0,1-.724.151A1.611,1.611,0,0,1,123.2,399.285Zm2.517-.969a.208.208,0,0,0,.126-.214.3.3,0,0,0-.182-.22l-.805-.466a.849.849,0,0,0-.384-.107.629.629,0,0,0-.365.075l-.346.2a.214.214,0,0,0-.132.208.327.327,0,0,0,.182.226l.805.459a.761.761,0,0,0,.384.107.681.681,0,0,0,.371-.069Z" transform="translate(-71.432 -358.848)" fill="#fff"/>
      <path id="Path_3951" data-name="Path 3951" d="M127.906,402.013l-1.2-.7a.163.163,0,0,1-.094-.113.094.094,0,0,1,.063-.1.283.283,0,0,1,.182-.038.392.392,0,0,1,.2.05l.4.233,1.737-1.007a.22.22,0,0,0,.132-.208.321.321,0,0,0-.176-.22h0a.164.164,0,0,1-.094-.107.1.1,0,0,1,.063-.107.389.389,0,0,1,.182-.038.339.339,0,0,1,.2.057h0a.629.629,0,0,1,.365.44.422.422,0,0,1-.258.422l-1.737,1.007.4.233a.164.164,0,0,1,.094.107.107.107,0,0,1-.069.107.308.308,0,0,1-.176.038A.471.471,0,0,1,127.906,402.013Z" transform="translate(-73.131 -359.833)" fill="#fff"/>
      <path id="Path_3952" data-name="Path 3952" d="M132.14,404.445l-.805-.459a.629.629,0,0,1-.365-.447.422.422,0,0,1,.258-.422l1.39-.805a1.365,1.365,0,0,1,.73-.145,1.674,1.674,0,0,1,.768.208l.805.466a.629.629,0,0,1,.365.447.422.422,0,0,1-.258.422l-1.391.8a1.308,1.308,0,0,1-.73.151A1.6,1.6,0,0,1,132.14,404.445Zm-.459-.661.805.466a1.006,1.006,0,0,0,.233.082l.271-1.768-1.372.786a.214.214,0,0,0-.132.208.327.327,0,0,0,.2.227Zm2.894-.742-.805-.466a.85.85,0,0,0-.233-.082l-.271,1.768,1.359-.787a.214.214,0,0,0,.132-.214A.333.333,0,0,0,134.575,403.042Z" transform="translate(-74.747 -360.761)" fill="#fff"/>
      <path id="Path_3953" data-name="Path 3953" d="M136.846,407.168l-1.208-.7a.17.17,0,0,1-.088-.113.094.094,0,0,1,.063-.1.284.284,0,0,1,.183-.038.39.39,0,0,1,.2.05l.4.233,1.737-1.007a.214.214,0,0,0,.132-.208.333.333,0,0,0-.182-.22h0a.176.176,0,0,1-.088-.107.1.1,0,0,1,.063-.107.4.4,0,0,1,.378,0h0a.629.629,0,0,1,.365.44.415.415,0,0,1-.258.422l-1.743,1.007.4.233a.164.164,0,0,1,.094.113.113.113,0,0,1-.069.1.315.315,0,0,1-.182.038A.464.464,0,0,1,136.846,407.168Z" transform="translate(-76.446 -361.741)" fill="#fff"/>
      <path id="Path_3954" data-name="Path 3954" d="M145.786,412.329l-1.208-.7a.176.176,0,0,1-.088-.107.1.1,0,0,1,.063-.107.389.389,0,0,1,.183-.038.472.472,0,0,1,.2.05l.4.233,1.737-1.007a.214.214,0,0,0,.132-.208.322.322,0,0,0-.176-.22h0c-.057-.038-.088-.069-.094-.113s0-.076.063-.107a.389.389,0,0,1,.183-.038.473.473,0,0,1,.2.057h0a.63.63,0,0,1,.365.447.422.422,0,0,1-.258.415l-1.743,1.007.4.233a.164.164,0,0,1,.094.113.113.113,0,0,1-.069.1.27.27,0,0,1-.182.038A.384.384,0,0,1,145.786,412.329Z" transform="translate(-79.761 -363.656)" fill="#fff"/>
      <path id="Path_3955" data-name="Path 3955" d="M150.884,414.148l-.8-.466a.857.857,0,0,0-.39-.107.629.629,0,0,0-.359.076l-.264.151a.05.05,0,0,0,0,.05.082.082,0,0,0,.044.057l1.711.988c.057,0,.088.069.088.113a.1.1,0,0,1-.063.107.377.377,0,0,1-.182.038.441.441,0,0,1-.189-.057l-2.013-1.158a.151.151,0,0,1-.088-.113.1.1,0,0,1,.063-.107l.522-.3a1.346,1.346,0,0,1,.724-.145,1.679,1.679,0,0,1,.774.208l.805.466a.832.832,0,0,0,.384.107.629.629,0,0,0,.365-.076l.352-.2a.207.207,0,0,0,.126-.208.327.327,0,0,0-.182-.227l-.805-.466a.849.849,0,0,0-.384-.1.629.629,0,0,0-.365.076.339.339,0,0,1-.182,0,.39.39,0,0,1-.2-.05.17.17,0,0,1-.088-.113.094.094,0,0,1,.063-.1,1.3,1.3,0,0,1,.73-.151,1.6,1.6,0,0,1,.768.214l.805.459a.629.629,0,0,1,.365.447.409.409,0,0,1-.252.422l-.352.2a1.259,1.259,0,0,1-.724.151,1.73,1.73,0,0,1-.812-.182Z" transform="translate(-81.204 -364.569)" fill="#fff"/>
      <path id="Path_3956" data-name="Path 3956" d="M154.726,417.489l-1.208-.7a.176.176,0,0,1-.088-.107.1.1,0,0,1,.063-.107.391.391,0,0,1,.183-.038.474.474,0,0,1,.2.05l.4.233,1.737-1a.208.208,0,0,0,.126-.208.3.3,0,0,0-.176-.227h0a.17.17,0,0,1-.088-.113c0-.044,0-.075.063-.1a.327.327,0,0,1,.183-.044.5.5,0,0,1,.2.057h0a.629.629,0,0,1,.365.447.415.415,0,0,1-.258.415l-1.743,1.007.4.233a.164.164,0,0,1,.094.113.113.113,0,0,1-.069.1.27.27,0,0,1-.183.038A.384.384,0,0,1,154.726,417.489Z" transform="translate(-83.076 -365.569)" fill="#fff"/>
      <path id="Path_3957" data-name="Path 3957" d="M160.627,419.893l-.17.1a1.365,1.365,0,0,1-.73.145,1.673,1.673,0,0,1-.768-.208l-.805-.466a.629.629,0,0,1-.365-.447.421.421,0,0,1,.258-.422.308.308,0,0,1,.176-.031.39.39,0,0,1,.2.05.164.164,0,0,1,.094.113.113.113,0,0,1-.063.1.208.208,0,0,0-.132.214.315.315,0,0,0,.182.22l.805.466a.829.829,0,0,0,.384.107.628.628,0,0,0,.365-.075l.176-.1a.208.208,0,0,0,.126-.214.315.315,0,0,0-.182-.22l-.2-.113a.189.189,0,0,1-.094-.113.12.12,0,0,1,.069-.107.365.365,0,0,1,.176-.038.474.474,0,0,1,.2.057l.2.113a.855.855,0,0,0,.39.107.668.668,0,0,0,.365-.076l.17-.1a.22.22,0,0,0,.132-.208.34.34,0,0,0-.182-.226l-.805-.459a.785.785,0,0,0-.39-.107.629.629,0,0,0-.359.076.409.409,0,0,1-.182.038.47.47,0,0,1-.2-.056.164.164,0,0,1-.094-.113.113.113,0,0,1,.069-.1,1.26,1.26,0,0,1,.724-.151,1.611,1.611,0,0,1,.774.214l.805.459a.629.629,0,0,1,.365.447.421.421,0,0,1-.258.422l-.176.1a1.148,1.148,0,0,1-.359.126,2.456,2.456,0,0,1-.434,0,.371.371,0,0,1,0,.245A.553.553,0,0,1,160.627,419.893Z" transform="translate(-84.692 -366.501)" fill="#fff"/>
      <path id="Path_3958" data-name="Path 3958" d="M140.965,420.209l-.7-.409s-.05-.038-.05-.063v-.063a.272.272,0,0,1,.107,0,.221.221,0,0,1,.113.031l.239.132,1.013-.585a.12.12,0,0,0,.075-.12.2.2,0,0,0-.1-.132h0a.119.119,0,0,1-.057-.069.069.069,0,0,1,.038-.057.2.2,0,0,1,.107,0,.3.3,0,0,1,.113.031h0a.371.371,0,0,1,.214.264.251.251,0,0,1-.151.245l-1.013.585.233.132a.119.119,0,0,1,.057.069.057.057,0,0,1-.044.057.17.17,0,0,1-.1,0,.3.3,0,0,1-.088-.05Z" transform="translate(-78.174 -366.956)" fill="#fff"/>
      <path id="Path_3959" data-name="Path 3959" d="M143.924,421.267l-.466-.271a.53.53,0,0,0-.227-.063.434.434,0,0,0-.214.044l-.151.088a.031.031,0,0,0,0,.031.044.044,0,0,0,0,.032l1,.579c.031,0,.05.038.05.063a.056.056,0,0,1-.038.063.145.145,0,0,1-.107,0,.214.214,0,0,1-.107,0l-1.177-.673a.088.088,0,0,1-.05-.069.05.05,0,0,1,.031-.057l.308-.176a.735.735,0,0,1,.422-.088.95.95,0,0,1,.453.119l.472.271a.434.434,0,0,0,.227.063.308.308,0,0,0,.208-.044l.208-.113a.126.126,0,0,0,.076-.126c0-.05-.044-.088-.113-.132l-.466-.27a.5.5,0,0,0-.227-.057.327.327,0,0,0-.214.044.252.252,0,0,1-.107,0,.214.214,0,0,1-.107-.031.107.107,0,0,1-.057-.063.075.075,0,0,1,.038-.063.8.8,0,0,1,.428-.088.926.926,0,0,1,.447.126l.472.271a.371.371,0,0,1,.214.258.239.239,0,0,1-.151.245l-.2.12a.811.811,0,0,1-.428.088A.975.975,0,0,1,143.924,421.267Z" transform="translate(-79 -367.478)" fill="#fff"/>
      <path id="Path_3960" data-name="Path 3960" d="M148.4,423.857l-.472-.271a.434.434,0,0,0-.227-.057.366.366,0,0,0-.208.038l-.157.088v.031a.049.049,0,0,0,.031,0l.994.579a.107.107,0,0,1,.057.063.069.069,0,0,1-.038.063.194.194,0,0,1-.107,0,.3.3,0,0,1-.113-.032l-1.2-.623c-.031,0-.05-.038-.05-.063a.051.051,0,0,1,.038-.063l.3-.176a.812.812,0,0,1,.428-.088.924.924,0,0,1,.447.126l.472.271a.5.5,0,0,0,.227.063.435.435,0,0,0,.214-.044l.2-.12c.057,0,.082-.069.076-.12a.2.2,0,0,0-.107-.132l-.472-.271a.5.5,0,0,0-.227-.063.365.365,0,0,0-.208.044.194.194,0,0,1-.107,0,.3.3,0,0,1-.113,0,.119.119,0,0,1-.057-.069.076.076,0,0,1,.038-.063.762.762,0,0,1,.428-.082.969.969,0,0,1,.453.12l.466.271a.371.371,0,0,1,.214.264.252.252,0,0,1-.151.245l-.2.113a.736.736,0,0,1-.422.088A.929.929,0,0,1,148.4,423.857Z" transform="translate(-80.661 -368.445)" fill="#fff"/>
      <path id="Path_3961" data-name="Path 3961" d="M151.864,425.9l-.1.057a.735.735,0,0,1-.422.088.976.976,0,0,1-.453-.126l-.466-.271a.352.352,0,0,1-.214-.258.239.239,0,0,1,.151-.245.165.165,0,0,1,.1,0,.215.215,0,0,1,.113,0,.119.119,0,0,1,.057.069.075.075,0,0,1-.038.063c-.057.031-.082.069-.076.12a.2.2,0,0,0,.107.132l.466.271a.554.554,0,0,0,.227.063.434.434,0,0,0,.214-.044l.1-.063c.057,0,.082-.069.076-.12a.2.2,0,0,0-.107-.132l-.12-.069s-.05-.038-.05-.063a.056.056,0,0,1,.038-.063.251.251,0,0,1,.107,0,.231.231,0,0,1,.113,0l.113.069a.465.465,0,0,0,.227.057.328.328,0,0,0,.214-.044l.1-.057a.12.12,0,0,0,.076-.12.2.2,0,0,0-.107-.132l-.466-.271a.555.555,0,0,0-.227-.063.434.434,0,0,0-.214.044.152.152,0,0,1-.107,0,.3.3,0,0,1-.113,0,.088.088,0,0,1-.05-.069.074.074,0,0,1,.038-.063.792.792,0,0,1,.422-.082.969.969,0,0,1,.453.12l.466.271a.371.371,0,0,1,.214.264.251.251,0,0,1-.151.245l-.1.057a.628.628,0,0,1-.208.069.883.883,0,0,1-.258,0,.214.214,0,0,1,0,.151A.289.289,0,0,1,151.864,425.9Z" transform="translate(-81.881 -369.072)" fill="#fff"/>
      <path id="Path_3962" data-name="Path 3962" d="M145.047,423h0a.082.082,0,0,1,.044-.1l2.039-.849a.076.076,0,0,1,.06,0,.079.079,0,0,1,0,.144l-2.039.849A.082.082,0,0,1,145.047,423Z" transform="translate(-79.966 -368.132)" fill="#fff"/>
      <path id="Path_3963" data-name="Path 3963" d="M173.6,404.957l-6.821,3.939a2.039,2.039,0,0,1-1.85,0l-8.324-4.744a.56.56,0,0,1,0-1.063l6.82-3.939a2.038,2.038,0,0,1,1.85,0c2.253,1.3,6.065,3.435,8.318,4.744a.56.56,0,0,1,.006,1.063Z" transform="translate(-84.11 -359.561)" fill="#43290a"/>
      <g id="Group_9204" data-name="Group 9204" transform="translate(72.109 39.366)" clip-path="url(#clip-path)">
        <path id="Path_3964" data-name="Path 3964" d="M173.6,404.957l-6.821,3.939a2.039,2.039,0,0,1-1.85,0l-8.324-4.744a.56.56,0,0,1,0-1.063l6.82-3.939a2.038,2.038,0,0,1,1.85,0c2.253,1.3,6.065,3.435,8.318,4.744a.56.56,0,0,1,.006,1.063Z" transform="translate(-156.219 -398.927)" fill="#fff" opacity="0.8"/>
        <path id="Path_3965" data-name="Path 3965" d="M175.4,407.064l.623-.126-13.635-7.808-.629.12Z" transform="translate(-158.274 -399.002)" fill="#43290a"/>
        <path id="Path_3966" data-name="Path 3966" d="M169.65,408.777l.629.12,3.473-2.007-.629-.12Z" transform="translate(-161.199 -401.835)" fill="#43290a"/>
        <path id="Path_3967" data-name="Path 3967" d="M164.49,405.921l.629.12,3.467-2-.623-.12Z" transform="translate(-159.286 -400.779)" fill="#43290a"/>
        <path id="Path_3968" data-name="Path 3968" d="M169.865,410.254l.629-.12-13.635-7.815-.629.126Z" transform="translate(-156.223 -400.185)" fill="#43290a"/>
      </g>
      <path id="Path_3970" data-name="Path 3970" d="M93.952,395.922l-32.58-18.807a2.265,2.265,0,0,0-2.051,0l-.145.082a.629.629,0,0,0,0,1.183l32.586,18.813a2.265,2.265,0,0,0,2.051,0l.138-.082a.629.629,0,0,0,0-1.189Z" transform="translate(-47.973 -351.383)" fill="#b4a99d"/>
      <path id="Path_3971" data-name="Path 3971" d="M107.93,348.1a.5.5,0,0,1,.189,0,.391.391,0,0,1,.164.044l.51.3c.05.031.076.063.076.1s0,.076-.076.1a2.782,2.782,0,0,1-.629.227,3.334,3.334,0,0,1-.812.076,4.116,4.116,0,0,1-.919-.138,3.889,3.889,0,0,1-.975-.409,2.222,2.222,0,0,1-.629-.522.887.887,0,0,1-.208-.541.862.862,0,0,1,.189-.528,2.238,2.238,0,0,1,.547-.5l.522-.315.547-.3a3.716,3.716,0,0,1,.862-.315,3.774,3.774,0,0,1,.919-.113,3.937,3.937,0,0,1,.931.12,3.545,3.545,0,0,1,.906.378,2.515,2.515,0,0,1,.711.56,1.013,1.013,0,0,1,.233.535.7.7,0,0,1-.132.466,1.567,1.567,0,0,1-.384.378.315.315,0,0,1-.17.044.486.486,0,0,1-.176-.044l-.516-.3a.132.132,0,0,1-.076-.088.163.163,0,0,1,.057-.113.583.583,0,0,0,.157-.2.421.421,0,0,0,0-.233.629.629,0,0,0-.151-.27,1.458,1.458,0,0,0-.371-.283,1.756,1.756,0,0,0-.51-.2,2.018,2.018,0,0,0-.51-.063,2.194,2.194,0,0,0-.5.063,2.053,2.053,0,0,0-.453.176l-.547.3-.516.315a1.429,1.429,0,0,0-.3.264.484.484,0,0,0-.107.283.453.453,0,0,0,.1.3,1.108,1.108,0,0,0,.359.3,2.079,2.079,0,0,0,.491.214,2.175,2.175,0,0,0,.459.088,1.8,1.8,0,0,0,.415,0A1.256,1.256,0,0,0,107.93,348.1Z" transform="translate(-64.977 -339.662)" fill="#43290a"/>
      <path id="Path_3972" data-name="Path 3972" d="M116.477,349.548c.529.308.812.629.837.912s-.17.573-.629.824a2.61,2.61,0,0,1-1.007.333,2.9,2.9,0,0,1-1.107-.082l-.692,1.416-.05.05a.327.327,0,0,1-.145.031.321.321,0,0,1-.138-.031l-.541-.315c-.082-.044-.126-.094-.126-.138a.227.227,0,0,1,0-.12l.629-1.334-.843-.485-1.479.856a.379.379,0,0,1-.17.038.386.386,0,0,1-.176-.038l-.51-.3a.12.12,0,0,1-.069-.1.113.113,0,0,1,.069-.1l4.1-2.366a.32.32,0,0,1,.176-.044.3.3,0,0,1,.17.044Zm-2.951.629.919.535a2.007,2.007,0,0,0,.7.258,1.1,1.1,0,0,0,.7-.151c.239-.138.327-.271.264-.4a1.152,1.152,0,0,0-.459-.4l-.919-.529Z" transform="translate(-67.069 -340.885)" fill="#43290a"/>
      <path id="Path_3973" data-name="Path 3973" d="M120.779,356.226a.1.1,0,0,1,0,.2l-.453.264a.4.4,0,0,1-.34,0l-2.787-1.611a.113.113,0,0,1-.069-.1.12.12,0,0,1,.069-.1l4.1-2.366a.34.34,0,0,1,.17-.038.359.359,0,0,1,.17.038l2.737,1.579a.12.12,0,0,1,.069.1.132.132,0,0,1-.069.1l-.453.258a.4.4,0,0,1-.34,0l-2.051-1.183-1.013.579,1.888,1.107a.113.113,0,0,1,.069.1.1.1,0,0,1-.069.094l-.447.264a.383.383,0,0,1-.176.038.34.34,0,0,1-.17-.038l-1.888-1.107-1.051.629Z" transform="translate(-69.616 -342.335)" fill="#43290a"/>
      <path id="Path_3974" data-name="Path 3974" d="M129.411,357a2.52,2.52,0,0,1,.692.547.9.9,0,0,1,.227.535.818.818,0,0,1-.2.522,2.2,2.2,0,0,1-.573.5c-.3.2-.629.371-.937.547a4.361,4.361,0,0,1-.875.327,3.415,3.415,0,0,1-.906.12,3.585,3.585,0,0,1-.919-.126,3.878,3.878,0,0,1-.925-.39l-1.6-.925a.1.1,0,0,1,0-.2l4.1-2.372a.359.359,0,0,1,.17-.038.384.384,0,0,1,.176.038Zm-.711,1.617a1.257,1.257,0,0,0,.3-.264.485.485,0,0,0,.107-.289.5.5,0,0,0-.12-.308,1.417,1.417,0,0,0-.4-.315l-.849-.491-2.857,1.649.881.51a2.1,2.1,0,0,0,1.044.289,2.2,2.2,0,0,0,.5-.063,2.11,2.11,0,0,0,.459-.176,9.747,9.747,0,0,0,.956-.541Z" transform="translate(-71.911 -343.666)" fill="#43290a"/>
      <path id="Path_3975" data-name="Path 3975" d="M130.529,362.765a.1.1,0,0,1-.069-.094.107.107,0,0,1,.069-.1l4.1-2.366a.322.322,0,0,1,.176-.044.3.3,0,0,1,.17.044l.516.3a.1.1,0,0,1,0,.2l-4.1,2.372a.378.378,0,0,1-.17.038.384.384,0,0,1-.176-.038Z" transform="translate(-74.559 -345.186)" fill="#43290a"/>
      <path id="Path_3976" data-name="Path 3976" d="M141.259,363.4a.113.113,0,0,1,.069.1q0,.057-.076.094l-.447.264a.379.379,0,0,1-.17.038.384.384,0,0,1-.176-.038l-1.139-.629-3.479,2.007a.447.447,0,0,1-.17.044.486.486,0,0,1-.176-.044l-.51-.3a.132.132,0,0,1-.076-.1.12.12,0,0,1,.076-.094l3.479-2.013-1.145-.661a.1.1,0,0,1-.069-.094.107.107,0,0,1,.069-.1l.453-.264a.341.341,0,0,1,.17-.038.359.359,0,0,1,.17.038Z" transform="translate(-76.209 -345.713)" fill="#43290a"/>
      <path id="Path_3977" data-name="Path 3977" d="M145.89,370a.4.4,0,0,1,.189-.031.358.358,0,0,1,.157.044l.516.3a.113.113,0,0,1,.076.1q0,.057-.076.094a2.789,2.789,0,0,1-.629.227,3.327,3.327,0,0,1-.812.076,4.1,4.1,0,0,1-.919-.132,3.693,3.693,0,0,1-.975-.415,2.035,2.035,0,0,1-.629-.522.868.868,0,0,1-.208-.535.831.831,0,0,1,.189-.535,2.245,2.245,0,0,1,.547-.5l.522-.315c.2-.113.378-.208.547-.3a3.915,3.915,0,0,1,.862-.321,3.5,3.5,0,0,1,.919-.107,3.646,3.646,0,0,1,.931.12,3.314,3.314,0,0,1,.906.371,2.409,2.409,0,0,1,.711.566.976.976,0,0,1,.233.529.711.711,0,0,1-.132.472,1.44,1.44,0,0,1-.384.371.277.277,0,0,1-.176.044.377.377,0,0,1-.17-.044l-.516-.3a.157.157,0,0,1-.076-.094.118.118,0,0,1,.05-.113.572.572,0,0,0,.164-.189.441.441,0,0,0,0-.239.63.63,0,0,0-.151-.264,1.464,1.464,0,0,0-.371-.283,1.978,1.978,0,0,0-.51-.208,2.052,2.052,0,0,0-.51-.057,1.889,1.889,0,0,0-.5.063,2.418,2.418,0,0,0-.453.17l-.547.3-.516.315a1.149,1.149,0,0,0-.3.264.541.541,0,0,0-.113.283.535.535,0,0,0,.107.3,1.2,1.2,0,0,0,.359.3,2.374,2.374,0,0,0,.491.214,2.664,2.664,0,0,0,.459.088,2.215,2.215,0,0,0,.415,0A1.252,1.252,0,0,0,145.89,370Z" transform="translate(-79.053 -347.771)" fill="#43290a"/>
      <path id="Path_3978" data-name="Path 3978" d="M154.446,371.974c.063.038.1.082.094.12a.252.252,0,0,1-.069.145l-2.46,3.215h-.038a.4.4,0,0,1-.34,0l-.459-.264c-.082-.05-.126-.094-.126-.132a.271.271,0,0,1,.038-.107l.428-.56-2.007-1.158-.975.245a.686.686,0,0,1-.176,0,.41.41,0,0,1-.233-.069l-.453-.264a.107.107,0,0,1-.069-.1.114.114,0,0,1,.069-.094h.05l5.568-1.416a1.058,1.058,0,0,1,.252-.044.428.428,0,0,1,.208.057ZM152,373.786l1.114-1.447-2.517.629Z" transform="translate(-80.914 -349.388)" fill="#43290a"/>
      <path id="Path_3979" data-name="Path 3979" d="M161.477,375.528c.529.3.805.629.837.906s-.176.579-.629.831a2.641,2.641,0,0,1-1.007.333,2.9,2.9,0,0,1-1.107-.082l-.692,1.409a.126.126,0,0,1-.05.05.258.258,0,0,1-.145.038.252.252,0,0,1-.138-.038l-.535-.308c-.088-.05-.132-.1-.132-.145a.3.3,0,0,1,0-.113l.629-1.334-.843-.484-1.479.849a.3.3,0,0,1-.17.044.284.284,0,0,1-.17-.044l-.516-.3a.107.107,0,0,1-.069-.1.1.1,0,0,1,.069-.094l4.172-2.372a.4.4,0,0,1,.34,0Zm-2.957.629.919.528a2.144,2.144,0,0,0,.711.264,1.05,1.05,0,0,0,.692-.157q.359-.208.264-.4a1.07,1.07,0,0,0-.459-.4l-.919-.535Z" transform="translate(-83.755 -350.519)" fill="#43290a"/>
      <path id="Path_3980" data-name="Path 3980" d="M168.308,379.443a2.45,2.45,0,0,1,.692.541.843.843,0,0,1,.227.535.875.875,0,0,1-.2.529,2.477,2.477,0,0,1-.579.5c-.3.189-.629.371-.938.541a4.462,4.462,0,0,1-.875.333,3.637,3.637,0,0,1-.9.113,3.6,3.6,0,0,1-.925-.126,3.967,3.967,0,0,1-.919-.384l-1.6-.925a.12.12,0,0,1-.069-.1.113.113,0,0,1,.069-.1l4.1-2.366a.314.314,0,0,1,.176-.038.3.3,0,0,1,.17.038Zm-.711,1.611a1.261,1.261,0,0,0,.3-.264.485.485,0,0,0,.107-.289.516.516,0,0,0-.126-.308,1.352,1.352,0,0,0-.4-.308l-.849-.491-2.857,1.648.881.51a1.941,1.941,0,0,0,.522.214,1.887,1.887,0,0,0,.522.069,1.926,1.926,0,0,0,.5-.063,2.242,2.242,0,0,0,.459-.176,7.108,7.108,0,0,0,.938-.516Z" transform="translate(-86.339 -351.986)" fill="#43290a"/>
    </g>
  </g>
  <g id="freepik--Character--inject-42" transform="translate(196.575 13.28)">
    <g id="freepik--character--inject-42-2" data-name="freepik--character--inject-42" transform="translate(0 0)">
      <path id="Path_3981" data-name="Path 3981" d="M376,118.167c-1.831,3.939-4.964,10.457-6.682,14.069l-6.72-7.915H356.94s6.8,14.472,10.847,17.857a3.2,3.2,0,0,0,4.637-.277,59.757,59.757,0,0,0,4.549-6.292c3.209-4.958,4.644-7.1,4.644-7.1l4.039-16.988C382.146,111.258,378.547,112.7,376,118.167Z" transform="translate(-355.113 -83.772)" fill="#ffa8a7"/>
      <path id="Path_3982" data-name="Path 3982" d="M395.047,111.472c-2.158-.082-4.505-.352-6.563,1.447a16.735,16.735,0,0,0-4.492,6.292c-1.391,3.272-3.542,7.418-3.542,7.418a18.088,18.088,0,0,0,4.027,4.2,10.2,10.2,0,0,0,4.839,2.032Z" transform="translate(-363.831 -83.741)" fill="#43290a"/>
      <path id="Path_3983" data-name="Path 3983" d="M395.047,111.472c-2.158-.082-4.505-.352-6.563,1.447a16.735,16.735,0,0,0-4.492,6.292c-1.391,3.272-3.542,7.418-3.542,7.418a18.088,18.088,0,0,0,4.027,4.2,10.2,10.2,0,0,0,4.839,2.032Z" transform="translate(-363.831 -83.741)" fill="#43290a" opacity="0.45"/>
      <path id="Path_3984" data-name="Path 3984" d="M376.62,144.011a24.032,24.032,0,0,1,2.07,2.819s-.724-2.668-1.705-3.58Z" transform="translate(-362.411 -95.548)" fill="#f28f8f"/>
      <path id="Path_3985" data-name="Path 3985" d="M354.193,114.752h0l.535-.56h0a.673.673,0,0,1,.6-.126l6.506,1.107a2.334,2.334,0,0,1,1.554,1.189l5.852,12.716a.629.629,0,0,1,0,.686h0l-.554.579h0a.667.667,0,0,1-.629.126l-6.481-1.1a2.34,2.34,0,0,1-1.554-1.2l-5.852-12.716C354.023,115.142,354.023,114.891,354.193,114.752Z" transform="translate(-354.046 -84.718)" fill="#958a7e"/>
      <path id="Path_3986" data-name="Path 3986" d="M368.674,130l-5.852-12.722a2.347,2.347,0,0,0-1.554-1.189l-6.506-1.095c-.629-.1-.881.264-.629.824l5.851,12.716a2.341,2.341,0,0,0,1.554,1.2l6.506,1.1C368.649,130.921,368.932,130.55,368.674,130Z" transform="translate(-354.037 -85.063)" fill="#281906"/>
      <path id="Path_3987" data-name="Path 3987" d="M366.69,116.91a2.3,2.3,0,0,1,.831.9l5.852,12.71a.629.629,0,0,1,0,.667l.522-.541h0a.629.629,0,0,0,0-.68l-5.852-12.716a2.177,2.177,0,0,0-.768-.849Z" transform="translate(-358.729 -85.592)" fill="#807468"/>
      <path id="Path_3988" data-name="Path 3988" d="M357.861,130.4c-2.693-3.089-2.617-6.959-1.378-8.079l.818,1.787a30.051,30.051,0,0,0,6.1.768c1.982-.151,3.6-.629,4.14-.239,1.151.812,1.485,4.26-1.812,5.518C362.932,131.217,357.861,130.4,357.861,130.4Z" transform="translate(-354.637 -87.787)" fill="#ffa8a7"/>
      <g id="freepik--Botom--inject-42" transform="translate(10.688 56.215)">
        <path id="Path_3989" data-name="Path 3989" d="M430.409,289.865a6.835,6.835,0,0,1-5.927,0l-.862-11.275,6.789.887Z" transform="translate(-390.526 -201.947)" fill="#ffa8a7"/>
        <path id="Path_3990" data-name="Path 3990" d="M397.15,279.281c-1.466,3.177-4.121,2.3-7.11.264l.529-11.326h7.2Z" transform="translate(-378.075 -198.102)" fill="#ffa8a7"/>
        <path id="Path_3991" data-name="Path 3991" d="M414.162,308.064a2.585,2.585,0,0,0,.075,1.743,5.467,5.467,0,0,0,3.876,1.63,9.423,9.423,0,0,0,5.568-.975,3.9,3.9,0,0,0,2.083-3.039c.126-1.277,0-2.517.591-3.5s1.46-1.932,1.655-2.422a4.958,4.958,0,0,0,0-2.6Z" transform="translate(-386.976 -209.475)" fill="#211405"/>
        <path id="Path_3992" data-name="Path 3992" d="M420.334,294.214a6.231,6.231,0,0,1-.27,1.422,13.3,13.3,0,0,1-1.378,2.819,12.87,12.87,0,0,1-.938,1.321c-.68.805-1.523,1.466-2.24,2.246a4.562,4.562,0,0,0-1.391,2.756c-.094,1.762,1.818,2.36,3.291,2.624a10.867,10.867,0,0,0,4.782-.239,4.4,4.4,0,0,0,3.222-3.511c.082-.491.05-.994.113-1.485a6.978,6.978,0,0,1,1.365-3.083,8.984,8.984,0,0,0,1.051-1.674,5.278,5.278,0,0,0-.2-3.4c-.252-.938-.541-2-.868-1.888a1.165,1.165,0,0,1-.082.566,2.515,2.515,0,0,0-.258.554,4.316,4.316,0,0,1-.264.724,1.887,1.887,0,0,1-.787.862c0-.629-.044-1.328-.063-1.995a.932.932,0,0,0-.151-.585A.951.951,0,0,0,424.7,292a12.306,12.306,0,0,0-3.775-.308.63.63,0,0,0-.5.22.73.73,0,0,0-.088.447,17.026,17.026,0,0,1,0,1.856Z" transform="translate(-387.002 -206.793)" fill="#281906"/>
        <path id="Path_3993" data-name="Path 3993" d="M420.986,302.176a5,5,0,0,1,2.932-.409,4.89,4.89,0,0,1,2.284.8.522.522,0,0,0,.673-.05h0a.5.5,0,0,0-.05-.749,4.959,4.959,0,0,0-2.573-.956,5.119,5.119,0,0,0-2.555.2S420.8,301.616,420.986,302.176Z" transform="translate(-389.54 -210.174)" fill="#f5f5f5"/>
        <path id="Path_3994" data-name="Path 3994" d="M418.62,305.118a6.435,6.435,0,0,1,3.247-.333,4.625,4.625,0,0,1,2.221.849.516.516,0,0,0,.673-.057h0a.484.484,0,0,0-.05-.749,5.153,5.153,0,0,0-2.624-1.026c-1.976-.138-2.517.264-2.517.264A1.636,1.636,0,0,0,418.62,305.118Z" transform="translate(-388.672 -211.286)" fill="#f5f5f5"/>
        <path id="Path_3995" data-name="Path 3995" d="M425.735,297.825a4.813,4.813,0,0,0-2.485.208c-.346.2-.579.742-.352.881a4.617,4.617,0,0,1,2.2-.3,6.574,6.574,0,0,1,2.139.591c.17.075.371.176.547.277a.466.466,0,0,0,.629-.2h0a.434.434,0,0,0-.17-.566A6.324,6.324,0,0,0,425.735,297.825Z" transform="translate(-390.225 -209.051)" fill="#f5f5f5"/>
        <path id="Path_3996" data-name="Path 3996" d="M371.216,295.014a2.133,2.133,0,0,0,.088,1.567c.22.459,2.617,1.812,5.852,1.592a13.409,13.409,0,0,0,6.682-2.334,7.807,7.807,0,0,1,4.115-1.063c1.6-.094,3.706-.887,4.052-1.636a3.542,3.542,0,0,0-.05-2.039Z" transform="translate(-371.055 -206.586)" fill="#211405"/>
        <path id="Path_3997" data-name="Path 3997" d="M384.178,281.2l-.837-.327a.673.673,0,0,0-.478-.05c-.208.075-.289.321-.346.535a8.033,8.033,0,0,1-.352,1.4,3.429,3.429,0,0,1-.906.95,14.737,14.737,0,0,1-2.586,1.667c-1.057.566-2.089,1.007-3.184,1.5a25.973,25.973,0,0,0-3.454,1.4,2.34,2.34,0,0,0,0,3.851,11.424,11.424,0,0,0,7.966.547c1.888-.529,3.951-2.517,6.411-2.724,1.567-.12,4.524-.56,5.531-1.749.371-.528-.126-2.2-.529-3.637-.447-1.579-.629-4.039-1.139-3.9-.038.522-.491.831-.768,1.258a9.725,9.725,0,0,0-.56,1.258,2.258,2.258,0,0,1-.818,1.076,1.038,1.038,0,0,1-1.258-.069c-.459-.478-.189-1.315-.522-1.888a1.944,1.944,0,0,0-1.1-.724Z" transform="translate(-371.023 -202.712)" fill="#281906"/>
        <path id="Path_3998" data-name="Path 3998" d="M385.5,286.372a1.466,1.466,0,0,1,1.158-.774,4.186,4.186,0,0,1,2.75,1.038.579.579,0,0,1-.088.963h0a.579.579,0,0,1-.667-.076A4.461,4.461,0,0,0,385.5,286.372Z" transform="translate(-376.391 -204.538)" fill="#f5f5f5"/>
        <path id="Path_3999" data-name="Path 3999" d="M382,288.385a1.674,1.674,0,0,1,1.372-.7,5.228,5.228,0,0,1,3.008,1.126.566.566,0,0,1-.075.931h0a.548.548,0,0,1-.629-.069A4.473,4.473,0,0,0,382,288.385Z" transform="translate(-375.093 -205.318)" fill="#f5f5f5"/>
        <path id="Path_4000" data-name="Path 4000" d="M378.12,290.2a1.888,1.888,0,0,1,1.422-.629,4.983,4.983,0,0,1,2.882,1.139.566.566,0,0,1-.076.931h0a.56.56,0,0,1-.629-.076A4.291,4.291,0,0,0,378.12,290.2Z" transform="translate(-373.655 -206.019)" fill="#f5f5f5"/>
        <path id="Path_4001" data-name="Path 4001" d="M417.069,159.825c.4,12.339.371,42.156.371,42.156.132,1.535.755,4.688,1.258,10.829.667,8-.774,25.571-.774,25.571a8.179,8.179,0,0,1-6.443.038s-3.851-25.023-5.046-32.926c-1.076-6.921-3.184-22.55-3.184-22.55l-2.435,20.285a41.433,41.433,0,0,1-.245,10.143c-.566,3.637-3.083,18.587-3.083,18.587a12.748,12.748,0,0,1-7.148-.271s-.233-25.9-.3-29.27c-.069-3.844,1.705-45.636,1.705-45.636Z" transform="translate(-378.074 -156.78)" fill="#281906"/>
        <path id="Path_4002" data-name="Path 4002" d="M405.3,190.48l-1.825-10.111s-5.034-.44-7.852-3.259c0,0,.5,2.762,6.858,4.4l1.818,10.231-1.435,19Z" transform="translate(-380.144 -164.318)" fill="#211405"/>
      </g>
      <path id="Path_4003" data-name="Path 4003" d="M393.327,121.007c.541-3.951,1.063-9.262,7.185-9.507l7.9.378c1.944.51,9.507,1.4,9.507,1.4l.145,17.139s.478,12.357.333,18.97c-5.663,3.586-17.964,4.75-25.7-1.12C392.471,142.815,392.786,124.921,393.327,121.007Z" transform="translate(-368.346 -83.775)" fill="#b4a99d"/>
      <path id="Path_4004" data-name="Path 4004" d="M394.436,74.832A7.821,7.821,0,0,0,397.9,85.761l-1.422.982L410.682,88l-.182,3.423a2.555,2.555,0,0,0,1.516-1.145,64.285,64.285,0,0,0,1.888-6.512c1.334-3.058,1.988-6.2,1.032-7.248a2.668,2.668,0,0,0-1.416-.818l1.887-.95A1.516,1.516,0,0,0,413.35,74a1.562,1.562,0,0,0-.428.321,3.96,3.96,0,0,0,.094-.629,2.794,2.794,0,0,0-.422-1.781,3.335,3.335,0,0,0-1-.875,25.82,25.82,0,0,0-5.273-2c-1.007-.359-1.982-.8-2.976-1.2a3.775,3.775,0,0,0-2.089-.378,1.384,1.384,0,0,0-1.139,1.592,2.68,2.68,0,0,0-2.932-.447,2.334,2.334,0,0,0-1.435,2.315,2.888,2.888,0,0,0-1.925.189,1.661,1.661,0,0,0-.938,1.6,3.82,3.82,0,0,0,1.548,2.127Z" transform="translate(-368.442 -67.436)" fill="#1d1f20"/>
      <path id="Path_4005" data-name="Path 4005" d="M405.665,81.766c1.309-.157,2.6-.371,3.9-.573a.434.434,0,0,1,.346.044.352.352,0,0,1,.107.2c.856,2.517.831,5.191,1.51,7.727.063.233.208.629.485.629.5.057.849-.39,1.063-.78l.484-.875a2.281,2.281,0,0,1,.359-.447,1.958,1.958,0,0,1,3.247.667c.837,1.925-.956,4.518-2.4,4.92-2.517.7-2.825-.906-2.825-.906l-.478,8.935c-2.215,2.315-9.495,1.51-8.054-.5l.094-2.718a15.445,15.445,0,0,1-3.347.063c-1.812-.34-2.907-1.812-3.4-3.775-.786-3.2-.7-7.1-.082-11.955a6.656,6.656,0,0,1,.447-1.674C399.669,82.162,402.771,82.112,405.665,81.766Z" transform="translate(-369.667 -72.369)" fill="#ffa8a7"/>
      <path id="Path_4006" data-name="Path 4006" d="M407.791,106.414a31.113,31.113,0,0,0,5.543-1.4,4.681,4.681,0,0,0,2.026-1.888,6.455,6.455,0,0,1-1.189,2.259c-1.082,1.3-6.412,2.1-6.412,2.1Z" transform="translate(-373.957 -80.672)" fill="#f28f8f"/>
      <path id="Path_4007" data-name="Path 4007" d="M408.74,91.811a.875.875,0,1,0,.9-.881A.893.893,0,0,0,408.74,91.811Z" transform="translate(-374.321 -76.148)" fill="#263238"/>
      <path id="Path_4008" data-name="Path 4008" d="M410.67,86.177l1.831.786a1.045,1.045,0,0,0-.535-1.34.975.975,0,0,0-1.3.554Z" transform="translate(-375.036 -74.151)" fill="#263238"/>
      <path id="Path_4009" data-name="Path 4009" d="M408.729,99.88l-2.869.975a1.485,1.485,0,0,0,1.888,1A1.586,1.586,0,0,0,408.729,99.88Z" transform="translate(-373.253 -79.466)" fill="#b16668"/>
      <path id="Path_4010" data-name="Path 4010" d="M408.4,102.283a1.542,1.542,0,0,0,.994-1.095,1.258,1.258,0,0,0-1.8,1.126,1.409,1.409,0,0,0,.805-.031Z" transform="translate(-373.894 -79.906)" fill="#f28f8f"/>
      <path id="Path_4011" data-name="Path 4011" d="M397.148,86.938l1.825-.7a.944.944,0,0,0-1.258-.554A1,1,0,0,0,397.148,86.938Z" transform="translate(-370.002 -74.175)" fill="#263238"/>
      <path id="Path_4012" data-name="Path 4012" d="M398.2,91.807a.881.881,0,1,0,.906-.887.9.9,0,0,0-.906.887Z" transform="translate(-370.413 -76.144)" fill="#263238"/>
      <path id="Path_4013" data-name="Path 4013" d="M403.335,91.876l-.132,4.832-2.693-.78,2.517-4.09A.723.723,0,0,1,403.335,91.876Z" transform="translate(-371.269 -76.483)" fill="#f28f8f"/>
      <path id="Path_4014" data-name="Path 4014" d="M392,125.873c.208-5,.629-9.438,2.466-11.772s2.863-2.794,7.28-2.724v.3a1.636,1.636,0,0,0-1.258.724,26.049,26.049,0,0,0-3.4,7.55c-1.258,4.864-1.5,15.73-1.573,21.575s0,10.564,0,10.564-2.957-.692-3.87-2.171C391.65,149.921,391.788,130.881,392,125.873Z" transform="translate(-367.984 -83.727)" fill="#43290a"/>
      <path id="Path_4015" data-name="Path 4015" d="M392,125.873c.208-5,.629-9.438,2.466-11.772s2.863-2.794,7.28-2.724v.3a1.636,1.636,0,0,0-1.258.724,26.049,26.049,0,0,0-3.4,7.55c-1.258,4.864-1.5,15.73-1.573,21.575s0,10.564,0,10.564-2.957-.692-3.87-2.171C391.65,149.921,391.788,130.881,392,125.873Z" transform="translate(-367.984 -83.727)" fill="#43290a" opacity="0.35"/>
      <path id="Path_4016" data-name="Path 4016" d="M415.762,118.352c.629-2.668,1.932-4.4,2.517-5.782l5.524.78c2.032.938,4.675,3.146,4.48,5.411l-1.447,16.4.4,15.529c-3.146,4.9-12.584,4-12.584,4s-.27-6.984.031-20.474C414.875,126.645,414.963,121.75,415.762,118.352Z" transform="translate(-376.473 -84.172)" fill="#43290a"/>
      <path id="Path_4017" data-name="Path 4017" d="M415.762,118.352c.629-2.668,1.932-4.4,2.517-5.782l5.524.78c2.032.938,4.675,3.146,4.48,5.411l-1.447,16.4.4,15.529c-3.146,4.9-12.584,4-12.584,4s-.27-6.984.031-20.474C414.875,126.645,414.963,121.75,415.762,118.352Z" transform="translate(-376.473 -84.172)" fill="#43290a" opacity="0.35"/>
      <path id="Path_4018" data-name="Path 4018" d="M416.07,118.622c.365-1.711.56-4.9.862-5.537s1.944-1.888,2.007-2.775v-.56a2.781,2.781,0,0,1,1.384.711c.516.459,2.039,1.523,2.039,1.523a6.959,6.959,0,0,1-1.145,2.945c-.906,1.3-2.164,2.152-2.36,1.831s-.164-.812-.5-1.567c-.415-.95-.516-1.353-.956-.415C417.077,115.526,416.07,118.622,416.07,118.622Z" transform="translate(-377.039 -83.126)" fill="#251706"/>
      <path id="Path_4019" data-name="Path 4019" d="M401.042,117.818c-.447,1.447.73-5,1.5-6.128a5.2,5.2,0,0,1,2.718-1.579l-.082,1.391a2.108,2.108,0,0,0-1.258.868A23.589,23.589,0,0,0,401.042,117.818Z" transform="translate(-371.43 -83.26)" fill="#251706"/>
      <path id="Path_4020" data-name="Path 4020" d="M415.706,126a119.485,119.485,0,0,1,12.584,1.969l-.044.466a118.6,118.6,0,0,0-12.615-1.976A2.5,2.5,0,0,0,415.706,126Z" transform="translate(-376.876 -89.152)" fill="#43290a"/>
      <path id="Path_4021" data-name="Path 4021" d="M392.8,125.63c1.378-.164,2.945-.308,4.662-.39l-.113.472c-1.7.082-3.247.227-4.6.39C392.763,125.945,392.781,125.781,392.8,125.63Z" transform="translate(-368.392 -88.87)" fill="#43290a"/>
      <path id="Path_4022" data-name="Path 4022" d="M443.432,135.9c-5.9-14.988-7.192-19.65-11.357-21.393a11.2,11.2,0,0,0-3.429-.73c-1.026,1.888-2.517,9.136,2.4,14.182,0,0,3.574,8.809,5.373,12.974-.057,4.19.245,7.682-1.032,13.345a3.775,3.775,0,0,1-1.422,1.888c-1.5.824-1.749,1.755-2.857,2.819-.862.831-1.617,1.026-1.491,1.3a1.623,1.623,0,0,0,1.888.667,14.043,14.043,0,0,0,2.322-1.214c.145.17-1.258,2.4-2.712,4.033-2.158,2.4-2.68,4.128,1.63,4.3,2.7.107,5.612-2.108,7.443-7.487.359-1.063.736-2.6,1.12-4.1.277-.629,2.252-10.734,2.668-13.842C444.534,138.81,444.4,138.338,443.432,135.9Z" transform="translate(-381.316 -84.621)" fill="#ffa8a7"/>
      <path id="Path_4023" data-name="Path 4023" d="M427.688,113.76a8.557,8.557,0,0,1,5.229.919c2.334,1.409,3.146,2.643,5.959,9.2s3.366,7.821,3.366,7.821-1.258,3.737-8.771,4.165l-3.366-7.676a15.458,15.458,0,0,1-3.052-7.777A17.454,17.454,0,0,1,427.688,113.76Z" transform="translate(-381.094 -84.581)" fill="#43290a"/>
      <path id="Path_4024" data-name="Path 4024" d="M427.688,113.76a8.557,8.557,0,0,1,5.229.919c2.334,1.409,3.146,2.643,5.959,9.2s3.366,7.821,3.366,7.821-1.258,3.737-8.771,4.165l-3.366-7.676a15.458,15.458,0,0,1-3.052-7.777A17.454,17.454,0,0,1,427.688,113.76Z" transform="translate(-381.094 -84.581)" fill="#43290a" opacity="0.45"/>
    </g>
  </g>
</svg>
